<?xml version="1.0" encoding="UTF-8"?>
<svg id="Ebene_1" data-name="Ebene 1" xmlns="http://www.w3.org/2000/svg" viewBox="0 0 98.08 56.7">
  <defs>
    <style>
      .cls-1 {
        stroke-width: 0px;
      }
    </style>
  </defs>
  <path class="cls-1" d="M96.82,31.81l-.53-.24c.89-.33,1.79-.81,1.79-1.85,0-2.16-6.35-5.3-6.41-5.33-2.76-1.35-3.52-1.91-6.2-4.13l-.81-.68c-2.62-2.22-6.21-5.24-11.18-6.58.9-2.05,2.29-6.28,1.05-11.03l-.23-.89-.92.08c-.34.03-.66.14-1.02.28-1.04.38-2.33.85-4.07-.75l-.73-.67-.74.67c-1.58,1.44-3.52,1.62-5.77.56l-.7-.33-.54.55c-1.31,1.33-2.61,2.09-4.72,1.46l-.89-.27-.41.84c-.84,1.73-2.74,1.93-4.18,1.79l-.93-.09-.23.9c-.35,1.33-1.76,2.33-3.29,2.32h-.94s-.14.92-.14.92c-.31,1.97-1.93,2.6-2.12,2.66l-1.14.4.51,1.09c.22.48.3,1.16.27,1.67-.75-.54-1.85-1.34-3.08-2.23-2.57-1.87-4.12-1.43-5.37-.88l-.25.11c-.11.04-10.91,6.04-10.59,8.4.12.87.89,1.89,1.65,2.7-2.16.88-3.8,1.41-5,1.41-1.86,0-7.62-2.69-11.42-4.48-4.98-2.33-5.63-2.57-6.33-2.34-.3.1-.84.39-1.08,1.2-.47,1.55.34,4.31,1.79,6.16,1.69,2.15,2.11,3.17,2.22,3.99-.02.47-.82,2.3-1.36,3.52-1.22,2.79-1.95,4.56-1.85,5.66.22,2.45,1.8,2.78,1.98,2.81l.38.06.34-.19c4.69-2.66,12.91-6.88,15.04-6.88.89,0,3.17.73,5.85,1.71-.66.25-1.29.41-1.85.55-1.09.27-2.15.5-2.39,1.55-.36,1.6,6.35,8.65,9.61,8.86,2.06.14,7.73-4.28,9.05-5.55.96.32,1.8.57,2.41.69,3.91.8,11.15,2.06,18.67,2.36-1.12,1.02-1.98,2.1-1.98,3.02,0,.64.57,1.95,1.55,3.38.02.03.04.06.06.09,1.84,2.67,5.1,5.75,8.92,5.86h.5s.34-.35.34-.35c3.98-4.31,3.88-10.88,3.67-13.35,5.01-1.26,10.61-3.34,16.8-6.29l.41-.2c2.16-1.02,5.16-1.88,6.35-2.21.54-.15.93-.62.97-1.17.04-.56-.27-1.09-.78-1.31ZM45.73,11.24c.36.13,1.02.5,1.79,1.59.21.3.55.46.89.46.22,0,.44-.07.63-.2.49-.35.61-1.03.26-1.52-.53-.74-1.05-1.27-1.54-1.64.76-.45,1.42-1.04,1.92-1.61.63.69,1.55,1.85,1.86,3.09.12.5.57.83,1.06.83.09,0,.18-.01.26-.03.58-.15.94-.74.79-1.32-.33-1.33-1.13-2.54-1.84-3.42,1.12-.22,2.06-.72,2.8-1.43.42.51,1.21,1.75,1.35,4.11.03.58.51,1.02,1.09,1.02.02,0,.04,0,.07,0,.6-.03,1.06-.55,1.02-1.15-.13-2.23-.76-3.72-1.35-4.67,1.38-.08,2.48-.64,3.38-1.33.42.77,1.29,2.74,1.17,5.67-.02.6.44,1.19,1.05,1.19h.04c.58,0,1.06-.51,1.09-1.1.1-2.57-.44-4.52-.96-5.78,1.58.27,3.07,0,4.4-.76.35,1.4.65,3.73-.27,6.04-.22.56.05,1.19.61,1.42.13.05.27.08.4.08.43,0,.84-.26,1.01-.69.93-2.33.87-4.63.58-6.33,1.37.41,2.54.15,3.36-.12.66,4.02-.72,7.53-1.38,8.92-5.74-.85-17.12-.79-27.51,2.44,0-.47-.04-.94-.14-1.38.81-.5,1.59-1.29,2.1-2.36ZM37.24,14.68c.91.66,1.75,1.27,2.44,1.76-.52.21-1.03.42-1.52.62l-4.03-3.07c.71-.31,1.42-.55,3.12.68ZM29.75,20.72l-2.82-2.17c.49-.36,1.02-.72,1.56-1.1l3.11,2.45c-.64.29-1.26.56-1.85.82ZM33.85,18.9l-3.46-2.72c.59-.39,1.16-.74,1.66-1.05.03.03.05.07.08.09l3.71,2.83c-.68.29-1.35.58-1.98.85ZM24.56,20.48c.13-.15.34-.34.58-.56l2.35,1.81c-.47.21-.92.41-1.36.6-.71-.69-1.34-1.42-1.56-1.85ZM23.19,38.55c1.04-.26,2.56-.64,4.08-1.66.39.15.78.3,1.17.45-1.21.77-3.01,1.75-5.01,2.34-.32-.37-.6-.72-.78-.99.17-.05.37-.1.54-.14ZM25.11,41.42c2.68-.97,4.85-2.43,5.8-3.12.01,0,.03,0,.04.02.54.21,1.07.42,1.6.62-1.42,1.14-3.75,2.83-6.04,3.7-.49-.39-.96-.8-1.4-1.21ZM30.05,44.8c-.47-.18-.95-.44-1.43-.71,2.73-1.33,5.23-3.36,6.27-4.26.62.23,1.21.46,1.78.66-2.13,1.94-5.09,4.15-6.62,4.31ZM68.13,54.47c-.68-.08-1.34-.3-1.97-.6,2.88-3.03,3.73-7.26,3.77-7.46.11-.59-.27-1.16-.87-1.27-.59-.11-1.16.27-1.27.87,0,.04-.82,4.12-3.51,6.68-.77-.61-1.47-1.32-2.06-2.01,2.62-1.33,3.89-3.86,3.95-3.99.26-.54.04-1.19-.5-1.45-.54-.27-1.19-.04-1.46.49-.01.02-1.13,2.23-3.31,3.16-.41-.66-.66-1.2-.7-1.46.14-.5,1.63-1.88,3.26-3.04,2.28-.03,4.77-.33,7.44-.89.14,2.28.1,7.49-2.78,10.98ZM95.1,29.68c-.42.15-.86.3-1.23.51-.51.28-.81.82-.78,1.4.02.53.31.99.75,1.25-1.4.44-3.1,1.03-4.49,1.69l-.42.2c-10.41,4.97-19.11,7.48-25.84,7.48-8.38,0-16.95-1.49-21.31-2.37-1.8-.37-5.99-1.99-10.04-3.56-6.7-2.6-11.23-4.3-13.08-4.3-3.06,0-12.61,5.2-15.43,6.78-.05-.14-.1-.34-.12-.6-.05-.63,1.03-3.11,1.68-4.59,1.16-2.66,1.62-3.82,1.52-4.61-.19-1.5-.91-2.88-2.67-5.12-.99-1.27-1.42-2.86-1.46-3.7.98.38,2.79,1.23,4.44,2,5.67,2.65,10.17,4.68,12.35,4.68,1.85,0,4.12-.81,7.38-2.22,0,0,0,0,0,0,1.06-.46,2.22-.98,3.51-1.56.07-.03.14-.06.21-.09,0,0,0,0,0,0,2.86-1.28,6.38-2.86,10.68-4.6,11.6-4.7,26.77-4.66,32-3.31,4.59,1.18,7.87,3.96,10.5,6.19l.83.7c2.8,2.33,3.67,2.97,6.63,4.42,1.92.94,4.02,2.36,4.87,3.17-.16.06-.33.12-.47.17ZM79.31,23.91c-.06.04-6.12,3.99-1.62,13.16.19.39.58.61.98.61.16,0,.32-.04.48-.11.54-.26.76-.92.5-1.46-3.6-7.34.63-10.23.83-10.36.5-.32.66-.99.34-1.5-.32-.51-.99-.66-1.5-.34ZM63.61,31.58c3.38,0,8.42,2.03,8.47,2.05.56.22,1.19-.02,1.41-.58.22-.56-.06-1.17-.62-1.39-.24-.09-5.83-2.23-9.64-2.1-.9.03-1.64.65-1.84,1.53-.58,2.49-.12,5.46,1.1,7.06.73.96,1.53,1.19,2.08,1.21.05,0,.09,0,.14,0,1.26,0,2.94-.66,4.73-1.37,1.19-.47,2.42-.95,3.23-1.1.59-.11.99-.67.88-1.26-.11-.59-.67-.99-1.26-.88-1.03.18-2.3.68-3.65,1.21-1.41.56-3.19,1.24-3.98,1.21-.09,0-.25-.2-.44-.44-.71-.93-1.17-2.98-.74-5.16h.13ZM11.91,27.7c.11.03.22.05.33.05.46,0,.89-.29,1.04-.76.18-.57-.13-1.19-.7-1.37l-4.73-1.53c-.57-.18-1.19.13-1.37.7-.18.57.13,1.19.7,1.37l4.73,1.53ZM11.44,28.31h-3.27c-.6,0-1.09.49-1.09,1.09s.49,1.09,1.09,1.09h3.27c.6,0,1.09-.49,1.09-1.09s-.49-1.09-1.09-1.09ZM11.81,30.48l-4.26,1.84c-.55.24-.81.88-.57,1.43.18.41.58.66,1,.66.14,0,.29-.03.43-.09l4.26-1.84c.55-.24.81-.88.57-1.43-.24-.55-.88-.81-1.43-.57ZM56.37,19.14c-.11.09-2.79,2.35-3.6,8.96-.07.6.35,1.14.95,1.21.04,0,.09,0,.13,0,.54,0,1.01-.41,1.08-.96.68-5.59,2.76-7.49,2.82-7.55.46-.38.52-1.06.14-1.52-.38-.47-1.07-.54-1.53-.16ZM51.77,19.46c-.51-.32-1.18-.17-1.5.34-.08.13-1.99,3.2-2.32,7.66-.04.6.41,1.12,1.01,1.16.03,0,.05,0,.08,0,.57,0,1.04-.44,1.09-1.01.28-3.87,1.96-6.61,1.99-6.66.32-.51.17-1.18-.34-1.5ZM46.12,20.99c-.55-.25-1.19-.01-1.44.53-.05.11-1.25,2.73-1.25,5.75,0,.6.49,1.09,1.09,1.09s1.09-.49,1.09-1.09c0-2.54,1.03-4.82,1.05-4.84.25-.55.01-1.19-.53-1.44ZM41.42,23c-.53-.28-1.19-.07-1.47.46-.07.13-.68,1.36-.68,3.47,0,.6.49,1.09,1.09,1.09s1.09-.49,1.09-1.09c0-1.55.42-2.43.43-2.47.27-.53.07-1.18-.47-1.46ZM87.64,26.45c-1.46,0-2.66,1.19-2.66,2.65s1.19,2.65,2.66,2.65,2.66-1.19,2.66-2.65-1.19-2.65-2.66-2.65ZM87.64,29.56c-.26,0-.48-.21-.48-.47s.21-.47.48-.47.48.21.48.47-.21.47-.48.47Z"/>
</svg>