<?xml version="1.0" encoding="utf-8"?>
<!-- Generator: Adobe Illustrator 28.2.0, SVG Export Plug-In . SVG Version: 6.00 Build 0)  -->
<svg version="1.1" xmlns="http://www.w3.org/2000/svg" xmlns:xlink="http://www.w3.org/1999/xlink" x="0px" y="0px"
	 viewBox="0 0 96.4 34.3" style="enable-background:new 0 0 96.4 34.3;" xml:space="preserve">
<style type="text/css">
	.st0{display:none;}
	.st1{display:inline;}
	.st2{display:inline;fill:#FFFFFF;stroke:#000000;stroke-width:0.75;stroke-miterlimit:10;}
	.st3{fill:none;stroke:#000000;stroke-width:0.75;stroke-miterlimit:10;}
	.st4{stroke:#000000;stroke-width:0.75;stroke-miterlimit:10;}
</style>
<g id="Ebene_1" class="st0">
	<path class="st1" d="M90,14.5C83.1,11.4,60.2,8,57.6,7.6c-7.1-8.4-9.7-7.8-10.2-7.5l0,0c0,0,0,0,0,0c-0.5,0.2-1.1,0.7-1.8,1.3
		c-0.1,0-0.1,0.1-0.2,0.1l0,0c-0.4,0.4-0.8,0.8-1.3,1.2c0,0-0.1,0.1-0.1,0.1c-1,0.9-1.9,1.9-2.7,2.8c0,0,0,0,0,0
		c-1,1.1-1.7,2.1-1.7,2.4c0,0.4-0.1,0.9,3.3,2c-1.7,0.2-3.7,0.5-5.7,0.8c-2.8,0.4-5.7,0.8-8.4,1.2c-1.2-0.7-5.9-3.1-7.7-2
		c-1.5,0.9-2.3,1.9-2.2,2.7c0,0.2,0.1,0.4,0.4,0.6c-1.2,0.2-2.1,0.4-2.5,0.5c-1,0.3-3.9-1.3-6.5-2.7C6.9,9.3,3.7,7.6,2.1,8.2
		c-1.6,0.7-2.2,6.5-1.6,9.6c0.3,1.4,0,3.8-0.2,5.9c-0.4,3.6-0.6,5.6,0.5,6.2c0.3,0.1,0.6,0.2,1,0.2C3.5,30,6,28.8,9,27.4
		c3.1-1.4,6.4-3,9.2-3.4c-1.7,1.3,0.6,6.3,1.5,8.1l0,0c0.2,0.3,0.3,0.6,0.3,0.7c0.6,1.2,1.5,1.5,2.4,1.5s2-0.4,2.9-0.8
		c2.5-1,8.2-5,9.3-5.7c0.8,0.1,2.8,0.2,6.1,0.2c0,0,0.1,0,0.1,0c-0.3,0.4-0.6,0.9-0.7,1.5c-0.3,1.4,0.3,2.5,1.6,3.1
		c0.3,0.1,0.6,0.2,1,0.2c2.9,0,7.7-3.6,8.8-4.5c2.1,0.1,4.3,0.2,6.4,0.4c11,0.9,25.1-2.2,26.6-2.8c0.7-0.3,1.2-0.3,2.1-0.3
		c1,0,2.3-0.1,4.6-0.6c3.6-0.8,4.8-2.5,4.7-3.4c-0.1-0.5-0.4-0.9-1-0.9c-0.8,0-1,0.2-1.2,0.5c-0.1,0.2-0.3,0.3-0.8,0.5
		c-0.6,0.3-1.6,0.1-2.3-0.2c1.6-1,3.7-1.4,4.7-1.5c1-0.1,1.2-0.6,1.3-0.9C96.5,18.4,95.9,17.2,90,14.5L90,14.5z M89.2,16.7
		c0,0.7-0.6,1.2-1.2,1.2s-1.2-0.5-1.2-1.2s0.6-1.2,1.2-1.2S89.2,16,89.2,16.7z M49.2,9.1c-0.1,0-0.2,0-0.4,0.1l-6.3-3.3
		c0.2-0.2,0.5-0.5,0.7-0.8l6.3,3.9C49.4,9.1,49.3,9.1,49.2,9.1z M51.1,8.8L44,4.4c0.2-0.2,0.3-0.4,0.5-0.5l7.1,4.9
		C51.4,8.7,51.2,8.8,51.1,8.8z M53.1,8.4l-7.8-5.3c0.2-0.2,0.4-0.4,0.6-0.5l7.4,5.8C53.2,8.4,53.2,8.4,53.1,8.4z M54.7,8.1l-8-6.3
		c0.3-0.2,0.6-0.5,0.9-0.6l7.5,6.8C54.9,8.1,54.8,8.1,54.7,8.1z M56.4,7.8L56.4,7.8l-7.1-6.5C51,2.3,53.9,4.9,56.4,7.8z M40.8,8.1
		c0.2-0.3,0.6-0.8,1-1.3L47,9.5c-0.5,0.1-1,0.1-1.5,0.2C43.6,9.2,41.4,8.4,40.8,8.1z M20.2,12.7c-0.2-0.1-0.2-0.1-0.2-0.1
		c0-0.2,0.4-0.9,1.7-1.7c0.8-0.5,3.3,0.3,5.4,1.3c-2.1,0.3-4,0.6-5.6,0.8L20.2,12.7L20.2,12.7z M19.8,29.9c3.6-1.2,7-3.6,7.8-4.2
		c0.8,0.2,1.6,0.5,2.3,0.7c-1.5,1.3-5.3,4.1-9.5,4.9C20.2,30.8,20,30.3,19.8,29.9L19.8,29.9z M19.4,28.9c-0.2-0.5-0.4-1-0.5-1.5
		c2-0.7,4-2.3,4.6-2.9c0.9,0.2,1.9,0.5,2.8,0.8C25,26.2,22.2,27.9,19.4,28.9z M18.7,26.3c-0.1-0.8-0.1-1.4,0.2-1.5
		c0.7-0.4,1.7-0.8,2-0.9c0.4,0.1,0.9,0.1,1.4,0.2C21.4,24.8,20,25.8,18.7,26.3L18.7,26.3z M24.8,32.5c-2.3,0.9-3.2,1-3.9-0.3
		c0,0,0,0,0,0c5-1,9.2-4.6,10.2-5.5c0.3,0.1,0.6,0.2,0.9,0.3c0.4,0.1,0.8,0.3,1.2,0.4C31.3,28.7,26.9,31.7,24.8,32.5L24.8,32.5z
		 M47.6,28.1L41,29.9c0-0.1,0-0.2,0-0.2c0.2-0.9,0.9-1.6,1.5-1.6l0,0C44.1,28,45.8,28,47.6,28.1L47.6,28.1z M42,31.5
		c-0.4-0.2-0.6-0.4-0.8-0.6l7.2-2C46.1,30.5,43.2,32,42,31.5L42,31.5z M57.9,27.5c-2.2-0.2-4.4-0.3-6.6-0.4l0,0
		c-3.1-0.1-6.1-0.2-8.7-0.2l0,0l0,0c-0.7,0-1.3,0-1.9,0c-3.1,0-5.5-0.1-6.1-0.2c-0.4-0.1-1.2-0.4-2.2-0.7c-3.5-1.1-9.3-3-12.2-3.2
		c-3.3-0.2-7.8,1.8-11.7,3.7c-3,1.4-6.2,2.9-7.2,2.4c-0.1-0.1-0.2-0.2-0.2-0.5L9.4,25c0.3-0.1,0.4-0.4,0.3-0.7
		C9.6,24.1,9.3,23.9,9,24l-7.9,3.1c0-0.4,0-0.8,0.1-1.2l7.8-2.4c0.3-0.1,0.4-0.4,0.4-0.7c-0.1-0.3-0.4-0.4-0.7-0.4l-7.3,2.3
		c0-0.4,0.1-0.8,0.1-1.1c0-0.2,0-0.4,0.1-0.6L8.8,22c0.3,0,0.5-0.3,0.4-0.6c0-0.3-0.3-0.5-0.6-0.4L1.6,22c0-0.5,0.1-1,0.1-1.4
		c1.2-0.1,4.6-0.3,6.8-0.4c0.3,0,0.5-0.3,0.5-0.5c0-0.3-0.3-0.5-0.6-0.5c-3.8,0.2-5.7,0.3-6.7,0.4c0-0.5,0-0.9,0-1.3l6.7,0.5
		c0,0,0,0,0,0c0.3,0,0.5-0.2,0.5-0.5c0-0.3-0.2-0.5-0.5-0.6l-7-0.5c-0.1-0.4-0.1-0.9-0.1-1.4l7.3,1.6c0,0,0.1,0,0.1,0
		c0.2,0,0.5-0.2,0.5-0.4c0.1-0.3-0.1-0.6-0.4-0.6l-7.6-1.6c0-0.4,0-0.9,0-1.3L9,15.4c0,0,0.1,0,0.1,0c0.2,0,0.4-0.2,0.5-0.4
		c0.1-0.3-0.1-0.6-0.4-0.6l-7.8-2.1c0.1-0.6,0.2-1.1,0.3-1.5l8,3.2c0.1,0,0.1,0,0.2,0c0.2,0,0.4-0.1,0.5-0.3c0.1-0.3,0-0.6-0.3-0.7
		L2.1,9.8c0.1-0.3,0.2-0.5,0.4-0.6c0.1,0,0.3-0.1,0.4-0.1c1.4,0,4.4,1.6,6.8,2.9c3.2,1.7,5.9,3.2,7.3,2.8c1.5-0.4,12-1.9,20.4-3
		c5.4-0.7,10.1-1.4,12-1.7c4.4-0.7,7.5-1.4,8-1.5C58.5,8.8,69,10.4,78,12.3c-1.2,0.9-2.8,2.8-2.7,5.7c0.3,4.6,4.6,6.4,7.4,7.1
		C78.7,26.2,66.8,28.3,57.9,27.5L57.9,27.5z M95,19c-1.4,0.1-4.2,0.7-6.1,2.2l-0.5,0.4c-0.7,0.5-1.4,1.1-1.5,1.2c0,0,0,0-0.1-0.2
		c-0.2-0.4,0.8-1.8,1.8-2.6c0.2-0.2,0.2-0.5,0-0.8c-0.2-0.2-0.5-0.2-0.8,0c-0.6,0.6-2.5,2.5-2,3.8c0.2,0.4,0.4,0.7,0.7,0.8
		c0.7,0.2,1.3-0.4,2.6-1.3l0.3-0.2c0.8,0.3,2.6,0.9,3.8,0.4c0.7-0.3,1-0.6,1.2-0.9c0.1-0.1,0.1-0.1,0.3-0.1c0,0.1-0.1,0.2-0.2,0.3
		c-0.2,0.3-1.1,1.3-3.7,1.9c-2.2,0.5-3.5,0.5-4.4,0.5c-0.5,0-0.9,0-1.3,0.1c0,0,0,0-0.1,0c-0.1,0-8.3-0.7-8.6-6.5
		c-0.2-3.3,2.4-5,3-5.4c2.9,0.6,5.6,1.3,7.7,2c-0.8,0.3-1.4,1.2-1.4,2.1c0,1.3,1,2.3,2.3,2.3s2.3-1,2.3-2.3c0-0.4-0.1-0.7-0.2-1
		c0.9,0.4,1.6,0.7,2.2,1.1c0,0-0.1,0-0.1,0c-0.7,0-0.8,0.6-0.8,0.7c0,0.4,0.3,0.8,0.8,0.8h0c0.4,0,0.8-0.4,0.8-0.8
		c0-0.1-0.1-0.2-0.1-0.4c1.9,1.1,2.4,1.6,2.5,1.8C95.3,19,95.2,19,95,19L95,19z"/>
	<path class="st1" d="M63,18.4c-0.6,0-1.1,0.5-1.1,1c0,0.4,0.3,0.8,1.1,0.8s1.1-0.2,1.1-0.7S63.6,18.4,63,18.4z M62.4,19.4
		L62.4,19.4L62.4,19.4z"/>
	<path class="st1" d="M59.2,19.1c0.1,0,0.2,0.1,0.4,0.1c0.4,0,0.8-0.2,1-0.6c0.2-0.4,0-0.9-0.7-1.2c-0.2-0.1-0.4-0.1-0.6-0.1h0
		c-0.3,0-0.5,0.2-0.6,0.4c-0.1,0.2-0.1,0.6,0,0.9C58.8,18.9,59,19,59.2,19.1L59.2,19.1z"/>
	<path class="st1" d="M61.2,21.3L61.2,21.3c0.2-0.4,0-0.9-0.7-1.2C60.4,20,60.1,20,59.9,20c-0.3,0-0.5,0.1-0.7,0.4
		c-0.2,0.5,0,1.2,0.6,1.4c0.1,0,0.2,0.1,0.4,0.1c0.1,0,0.3,0,0.4-0.1C60.9,21.7,61.1,21.5,61.2,21.3L61.2,21.3z M60.8,21.1
		L60.8,21.1L60.8,21.1z"/>
	<path class="st1" d="M58.2,21.3c-0.7-0.3-1.1-0.2-1.2,0.3c-0.2,0.5,0,1.2,0.6,1.4c0.1,0,0.2,0.1,0.4,0.1c0.1,0,0.3,0,0.4-0.1
		c0.3-0.1,0.5-0.3,0.5-0.5c0.1-0.2,0.1-0.4,0-0.6C58.8,21.7,58.6,21.5,58.2,21.3L58.2,21.3z"/>
	<path class="st1" d="M54.9,22c-0.2-0.4-0.7-0.6-1.3-0.3c-0.6,0.3-0.8,0.7-0.6,1.1c0.2,0.3,0.6,0.6,1,0.6c0.1,0,0.3,0,0.4-0.1
		c0.2-0.1,0.4-0.3,0.5-0.6C55,22.5,55,22.2,54.9,22C54.9,21.9,54.9,21.9,54.9,22L54.9,22z M54.6,22.2L54.6,22.2z"/>
	<path class="st1" d="M85,19.3c-0.2-0.4-0.7-0.6-1.3-0.3c-0.6,0.3-0.8,0.7-0.6,1.1c0.2,0.3,0.6,0.6,1,0.6c0.1,0,0.3,0,0.4-0.1
		c0.2-0.1,0.4-0.3,0.5-0.6C85.1,19.8,85.1,19.5,85,19.3C84.9,19.2,84.9,19.2,85,19.3L85,19.3z"/>
	<path class="st1" d="M80.3,16.1c-0.7,0-1.1,0.3-1,0.8c0,0.5,0.5,1.1,1.1,1.1h0c0.6,0,1-0.6,1-1l0,0C81.3,16.5,81,16.1,80.3,16.1
		L80.3,16.1z"/>
	<path class="st1" d="M79,18.7c-0.6,0-0.6,0.4-0.6,0.5c0,0.2,0.1,0.3,0.2,0.5c0.1,0.1,0.3,0.2,0.4,0.2h0c0.3,0,0.6-0.3,0.6-0.6l0,0
		C79.7,19,79.4,18.8,79,18.7z"/>
	<path class="st1" d="M78.6,17.6c0-0.3-0.2-0.5-0.7-0.5c-0.6,0-0.6,0.4-0.6,0.5c0,0.2,0.1,0.3,0.2,0.5c0.1,0.1,0.3,0.2,0.4,0.2h0
		C78.3,18.3,78.6,18,78.6,17.6L78.6,17.6z"/>
	<path class="st1" d="M83.4,17.5c0.3,0,0.5-0.1,0.7-0.3c0.2-0.2,0.3-0.5,0.3-0.7c0-0.3-0.1-0.5-0.4-0.7c-0.2-0.1-0.4-0.2-0.7-0.2
		c-0.7,0-1.1,0.2-1.1,0.7c0,0.3,0.1,0.6,0.3,0.8C82.9,17.3,83.1,17.5,83.4,17.5L83.4,17.5L83.4,17.5z"/>
	<path class="st1" d="M56.9,20L56.9,20c-0.2-0.4-0.7-0.6-1.3-0.3c-0.6,0.3-0.8,0.7-0.6,1.1c0.2,0.3,0.6,0.6,1,0.6
		c0.1,0,0.3,0,0.4-0.1c0.2-0.1,0.4-0.3,0.5-0.6C57.1,20.5,57.1,20.3,56.9,20L56.9,20z"/>
	<path class="st1" d="M55,19.2c0.1,0,0.3,0,0.4-0.1c0.5-0.3,0.7-1,0.5-1.4l0,0c-0.2-0.4-0.7-0.6-1.3-0.3c-0.6,0.3-0.8,0.7-0.6,1.1
		C54.2,19,54.6,19.2,55,19.2L55,19.2z M55.6,17.9L55.6,17.9L55.6,17.9z"/>
	<path class="st1" d="M71.8,15.3c-0.1,0.2-0.2,0.5-0.1,0.8c0.1,0.2,0.3,0.5,0.8,0.5c0.1,0,0.3,0,0.5-0.1c0.4-0.1,1-0.2,0.9-0.9
		c0-0.3-0.2-0.6-0.5-0.7c-0.3-0.2-0.6-0.3-0.9-0.2C72.3,14.8,72,15,71.8,15.3z"/>
	<path class="st1" d="M65.2,18.1c0.5-0.1,0.6-0.5,0.5-0.6c0-0.2-0.1-0.3-0.3-0.4c-0.2-0.1-0.3-0.1-0.5-0.1c-0.2,0-0.3,0.2-0.4,0.3
		c-0.1,0.1-0.1,0.3-0.1,0.5c0.1,0.2,0.2,0.4,0.6,0.4C65,18.1,65.1,18.1,65.2,18.1L65.2,18.1z M65,17.4L65,17.4L65,17.4L65,17.4z"/>
	<path class="st1" d="M68.8,16.6c0.1,0,0.2,0.1,0.4,0.1c0.4,0,0.8-0.2,1-0.6l0,0c0.1-0.2,0.1-0.4,0-0.6c-0.1-0.3-0.4-0.5-0.8-0.6
		c-0.5-0.1-0.8-0.2-1.1,0c-0.2,0.1-0.3,0.2-0.3,0.4C67.9,15.7,68.2,16.4,68.8,16.6L68.8,16.6z"/>
	<path class="st1" d="M67.8,17c-0.2,0-0.4-0.1-0.6,0c-0.1,0-0.2,0.2-0.2,0.3c-0.1,0.3,0.1,0.7,0.4,0.8c0.1,0,0.1,0,0.2,0
		c0.3,0,0.5-0.1,0.6-0.4c0-0.1,0-0.3,0-0.4C68.2,17.1,68,17,67.8,17L67.8,17z"/>
	<path class="st1" d="M70.6,14.1c0.1,0,0.2,0,0.2,0c0.8,0,1.9-0.2,2-0.8l0,0c0.1-0.2,0-0.4-0.1-0.5c-0.3-0.4-1.1-0.6-1.9-0.5
		c-0.7,0-1.6,0.2-1.9,0.6c-0.1,0.1-0.2,0.3-0.1,0.5C68.8,13.9,69.9,14.1,70.6,14.1L70.6,14.1z"/>
	<path class="st1" d="M65.5,15.9C65.5,15.9,65.6,15.9,65.5,15.9c0.5,0,1-0.2,1-0.6c0-0.1,0-0.3-0.1-0.4c-0.2-0.2-0.4-0.2-0.9-0.2
		c-0.5,0-0.7,0.1-0.9,0.2c-0.1,0.1-0.1,0.2-0.1,0.3C64.6,15.7,65.1,15.9,65.5,15.9L65.5,15.9z"/>
	<path class="st1" d="M65.4,13.1c0-0.3-0.2-0.6-0.5-0.7c-0.3-0.2-0.6-0.3-0.9-0.2c-0.3,0.1-0.6,0.3-0.8,0.6
		c-0.1,0.2-0.2,0.5-0.1,0.8c0.1,0.2,0.3,0.5,0.8,0.5c0.1,0,0.3,0,0.5-0.1C64.8,13.8,65.4,13.7,65.4,13.1L65.4,13.1z"/>
	<path class="st1" d="M66,12.1c-0.2,0.1-0.3,0.2-0.3,0.4c-0.1,0.5,0.2,1.1,0.8,1.3c0.1,0,0.2,0.1,0.4,0.1c0.4,0,0.8-0.2,1-0.6
		c0.1-0.2,0.1-0.4,0-0.6c-0.1-0.3-0.4-0.5-0.8-0.6C66.6,12,66.3,12,66,12.1L66,12.1z"/>
	<path class="st1" d="M64.6,12.1c0.1,0,0.2,0,0.2,0c0.8,0,1.9-0.2,2-0.8c0.1-0.2,0-0.4-0.1-0.5c-0.3-0.4-1.2-0.6-1.9-0.5
		c-0.7,0-1.6,0.2-2,0.6c-0.1,0.1-0.2,0.3-0.1,0.5C62.8,11.9,63.8,12.1,64.6,12.1L64.6,12.1z"/>
	<path class="st1" d="M62.3,16.9c0-0.5-0.5-1.1-1.1-1.1s-1.1,0.5-1.1,1c0,0.4,0.3,0.8,1.1,0.8S62.3,17.4,62.3,16.9z M60.6,16.8
		L60.6,16.8L60.6,16.8z"/>
	<path class="st1" d="M64.6,16.7c0-0.4-0.3-0.9-1-0.9c-0.3,0-0.7,0-0.9,0.2c-0.1,0.1-0.2,0.2-0.2,0.5c0,0.5,0.4,1.1,1,1.2
		c0,0,0.1,0,0.1,0C64.1,17.6,64.5,17.1,64.6,16.7L64.6,16.7L64.6,16.7z"/>
	<path class="st1" d="M60.4,14.6c0,0.6,0.6,1.2,1.4,1.2c0.1,0,0.1,0,0.2,0c0.4,0,0.8-0.1,1.1-0.4c0.2-0.1,0.3-0.3,0.3-0.5
		c0-0.2,0-0.3-0.2-0.5C62.9,14.2,62.4,14,62,14c-0.6-0.1-1.1,0-1.3,0.2C60.5,14.3,60.4,14.4,60.4,14.6L60.4,14.6z"/>
	<path class="st1" d="M56.2,15.7c0,0.4,0.3,0.8,1.1,0.8s1.1-0.2,1.1-0.7s-0.5-1.1-1.1-1.1S56.2,15.2,56.2,15.7z M56.6,15.7
		L56.6,15.7L56.6,15.7z"/>
	<path class="st1" d="M59.5,16.5C59.5,16.5,59.5,16.5,59.5,16.5c0.7,0,1.1-0.5,1.1-0.9l0,0c0-0.4-0.2-0.9-1-0.9
		c-0.3,0-0.7,0-0.9,0.2c-0.1,0.1-0.2,0.2-0.2,0.5C58.5,15.8,58.9,16.5,59.5,16.5L59.5,16.5z"/>
	<path class="st1" d="M59.4,13.9c0-0.2,0-0.3-0.2-0.5C59,13.1,58.4,13,58,12.9c-0.1,0-0.2,0-0.2,0l0.1-0.1c0.3-0.1,0.8-0.4,0.7-0.9
		c0-0.3-0.3-0.5-0.6-0.7c-0.4-0.2-0.8-0.2-1.1,0c-0.4,0.2-0.7,0.6-0.8,0.9c0,0.3,0,0.6,0.2,0.7l0,0c0.1,0.1,0.2,0.2,0.3,0.2
		c-0.1,0.1-0.2,0.2-0.2,0.4c0,0.6,0.6,1.2,1.4,1.2c0.1,0,0.1,0,0.2,0c0.4,0,0.8-0.1,1.1-0.4C59.3,14.3,59.4,14.1,59.4,13.9
		L59.4,13.9z"/>
	<path class="st1" d="M53.2,17.4c0-0.2,0-0.3-0.2-0.5c-0.3-0.3-0.8-0.4-1.2-0.5c-0.6-0.1-1.1,0-1.3,0.2c-0.1,0.1-0.2,0.2-0.2,0.4
		c0,0.2,0.1,0.5,0.2,0.7c0.3,0.3,0.7,0.5,1.1,0.6c0.1,0,0.1,0,0.2,0c0.4,0,0.8-0.1,1.1-0.4C53.1,17.8,53.2,17.6,53.2,17.4z"/>
	<path class="st1" d="M51.3,13.7c-0.4,0.2-0.7,0.6-0.8,0.9c0,0.3,0,0.6,0.2,0.7c0.2,0.2,0.3,0.2,0.5,0.2c0.3,0,0.6-0.2,0.8-0.3
		l0.2-0.1c0.3-0.1,0.8-0.4,0.7-0.9c0-0.3-0.3-0.5-0.6-0.7C52.1,13.5,51.6,13.5,51.3,13.7L51.3,13.7z"/>
	<path class="st1" d="M55.7,15.3L55.7,15.3c0.2-0.1,0.2-0.3,0.2-0.6c0-0.4-0.3-0.8-0.8-1c-0.3-0.2-0.8-0.4-1.3-0.3
		c-0.2,0.1-0.3,0.2-0.4,0.4c-0.2,0.5,0.2,1.1,0.7,1.4c0.2,0.1,0.5,0.2,0.8,0.2C55.3,15.5,55.5,15.5,55.7,15.3L55.7,15.3z"/>
	<path class="st1" d="M50.3,13.7c0.4,0,0.9-0.1,1.5-0.2l0.4-0.1c0.3-0.1,0.6-0.1,0.9-0.1c0.9-0.1,1.4-0.2,1.6-0.6
		c0.1-0.2,0-0.4-0.1-0.6c-0.3-0.4-1.4-0.8-2.6-0.6c-1.2,0.2-2.2,0.8-2.5,1.2c-0.1,0.2-0.1,0.4,0,0.5C49.7,13.6,50,13.7,50.3,13.7
		L50.3,13.7z"/>
	<path class="st1" d="M45.2,15.4l0.2-0.1c0.3-0.1,0.8-0.4,0.7-0.9c0-0.3-0.3-0.5-0.6-0.7c-0.4-0.2-0.8-0.2-1.1,0
		c-0.4,0.2-0.7,0.6-0.8,1c0,0.3,0,0.6,0.2,0.7c0.2,0.2,0.3,0.2,0.5,0.2C44.7,15.7,45,15.5,45.2,15.4L45.2,15.4z"/>
	<path class="st1" d="M49,14.8c0-0.4-0.3-0.8-0.8-1c-0.3-0.2-0.8-0.4-1.3-0.3c-0.2,0.1-0.3,0.2-0.4,0.4c-0.2,0.5,0.2,1.1,0.7,1.4
		c0.2,0.1,0.5,0.2,0.8,0.2c0.3,0,0.5-0.1,0.7-0.2C49,15.3,49.1,15.1,49,14.8L49,14.8z"/>
	<path class="st1" d="M43.5,13.8c0.4,0,0.9-0.1,1.5-0.2l0.4-0.1c0.3-0.1,0.6-0.1,0.9-0.1c0.9-0.1,1.4-0.2,1.6-0.6
		c0.1-0.2,0-0.4-0.1-0.6c-0.3-0.4-1.4-0.8-2.6-0.6c-1.2,0.2-2.2,0.8-2.5,1.2c-0.1,0.2-0.1,0.4,0,0.5C42.8,13.7,43.1,13.8,43.5,13.8
		L43.5,13.8z"/>
	<path class="st1" d="M45.8,20.5c-0.6,0-1.1,0.5-1.1,1c0,0.4,0.3,0.8,1.1,0.8s1.1-0.2,1.1-0.7S46.4,20.5,45.8,20.5z M45.1,21.5
		L45.1,21.5L45.1,21.5z"/>
	<path class="st1" d="M43.3,20.7L43.3,20.7c0.2-0.4,0-0.9-0.7-1.2c-0.2-0.1-0.4-0.1-0.6-0.1c-0.3,0-0.5,0.1-0.7,0.4
		c-0.2,0.5,0,1.2,0.6,1.4c0.1,0,0.2,0.1,0.4,0.1C42.8,21.3,43.2,21,43.3,20.7L43.3,20.7z M43,20.5L43,20.5L43,20.5z"/>
	<path class="st1" d="M43.3,22.2c-0.2-0.1-0.4-0.1-0.6-0.1c-0.3,0-0.5,0.1-0.7,0.4c-0.2,0.5,0,1.2,0.6,1.4c0.1,0,0.2,0.1,0.4,0.1
		c0.1,0,0.3,0,0.4-0.1c0.3-0.1,0.5-0.3,0.5-0.5c0.1-0.2,0.1-0.4,0-0.6C43.8,22.5,43.6,22.3,43.3,22.2L43.3,22.2z"/>
	<path class="st1" d="M41,23.4c-0.2-0.1-0.4-0.1-0.6-0.1c-0.3,0-0.5,0.1-0.7,0.4c-0.2,0.5,0,1.2,0.6,1.4c0.1,0,0.2,0.1,0.4,0.1
		c0.1,0,0.3,0,0.4-0.1c0.3-0.1,0.5-0.3,0.5-0.5c0.1-0.2,0.1-0.4,0-0.6C41.5,23.8,41.3,23.6,41,23.4L41,23.4z"/>
	<path class="st1" d="M37,23.7c-0.2,0-0.4,0-0.7,0.1c-0.6,0.3-0.8,0.7-0.6,1.1c0.1,0.2,0.3,0.4,0.6,0.5c0.2,0.1,0.3,0.1,0.5,0.1
		c0.1,0,0.3,0,0.4-0.1c0.2-0.1,0.4-0.3,0.5-0.6c0.1-0.3,0.1-0.5,0-0.8C37.6,23.9,37.3,23.7,37,23.7L37,23.7z M37.3,24.3L37.3,24.3
		L37.3,24.3z"/>
	<path class="st1" d="M39.7,22.1c-0.1-0.2-0.4-0.4-0.6-0.4c-0.2,0-0.4,0-0.7,0.1c-0.6,0.3-0.8,0.7-0.6,1.1c0.1,0.2,0.3,0.4,0.6,0.5
		c0.2,0.1,0.3,0.1,0.5,0.1c0.1,0,0.3,0,0.4-0.1c0.2-0.1,0.4-0.3,0.5-0.6C39.8,22.7,39.8,22.4,39.7,22.1L39.7,22.1z"/>
	<path class="st1" d="M37.3,19.6c-0.3,0.1-0.6,0.3-0.7,0.6c0,0.1-0.1,0.3,0,0.5c0.1,0.2,0.3,0.4,0.6,0.5c0.2,0.1,0.3,0.1,0.5,0.1
		c0.1,0,0.3,0,0.4-0.1c0.5-0.3,0.7-1,0.5-1.4c-0.1-0.3-0.1-0.3,0,0C38.5,19.5,38,19.3,37.3,19.6L37.3,19.6z"/>
	<path class="st1" d="M49.8,23.9c-0.2-0.1-0.6,0-0.9,0.1c-0.6,0.3-0.8,0.7-0.6,1.1c0.2,0.4,0.6,0.6,1,0.6c0.1,0,0.3,0,0.4-0.1
		c0.2-0.1,0.4-0.3,0.5-0.6c0.1-0.3,0.1-0.5,0-0.8C50.2,24,50,23.9,49.8,23.9L49.8,23.9z"/>
	<path class="st1" d="M42.9,18.9c0,0.4,0.3,0.8,1.1,0.8s1.1-0.2,1.1-0.7s-0.5-1.1-1.1-1.1S42.9,18.4,42.9,18.9z M43.3,18.9
		L43.3,18.9L43.3,18.9z"/>
	<path class="st1" d="M46.3,17.9c-0.7-0.1-1.1,0.1-1.1,0.6c0,0.3,0.1,0.6,0.3,0.8c0.2,0.2,0.4,0.3,0.7,0.4c0,0,0.1,0,0.1,0
		c0.2,0,0.5-0.1,0.7-0.3c0.2-0.2,0.3-0.4,0.4-0.7C47.4,18.4,47.1,17.9,46.3,17.9L46.3,17.9z M46.9,18.8L46.9,18.8z"/>
	<path class="st1" d="M46.1,17.1L46.1,17.1c0-0.2-0.1-0.8-1.4-1c-0.3,0-0.6,0-0.9,0c-0.6,0.1-0.7,0.5-0.7,0.6c0,0.3,0.1,0.6,0.4,0.8
		c0.3,0.2,0.6,0.4,1,0.4c0.1,0,0.1,0,0.2,0C45.5,17.9,46.1,17.6,46.1,17.1z"/>
	<path class="st1" d="M39,17.8c0,0.4,0.3,0.8,1.1,0.8s1.1-0.2,1.1-0.7s-0.5-1.1-1.1-1.1S39,17.3,39,17.8z M39.4,17.8L39.4,17.8
		L39.4,17.8z"/>
	<path class="st1" d="M41.2,17.4c0,0.3,0.1,0.6,0.3,0.8c0.2,0.2,0.4,0.3,0.7,0.4c0,0,0.1,0,0.1,0c0.2,0,0.5-0.1,0.7-0.2
		c0.2-0.2,0.3-0.4,0.4-0.7c0-0.3-0.1-0.5-0.3-0.7c-0.2-0.1-0.4-0.2-0.7-0.2C41.7,16.8,41.3,17,41.2,17.4z M43,17.7L43,17.7L43,17.7z
		"/>
	<path class="st1" d="M39.2,15.6c0,0.3,0.1,0.6,0.4,0.8c0.3,0.2,0.6,0.4,1,0.4c0.1,0,0.1,0,0.2,0c0.7,0,1.3-0.4,1.4-0.9
		c0-0.1,0-0.5-0.5-0.8c-0.3-0.1-0.6-0.2-0.9-0.2C40.2,15,39.3,14.9,39.2,15.6L39.2,15.6z"/>
	<path class="st1" d="M50,18.4c-0.5,0-1.5-0.1-1.5,0.6c0,0.2,0.1,0.5,0.2,0.7c0.3,0.3,0.7,0.5,1.1,0.6c0.1,0,0.1,0,0.2,0
		c0.4,0,0.8-0.1,1.1-0.4c0.2-0.1,0.3-0.3,0.3-0.5C51.4,19.1,51.4,18.5,50,18.4L50,18.4z"/>
	<path class="st1" d="M40,14.9c0.1,0,0.1,0,0.2,0c0.4,0,0.8-0.1,1.1-0.4c0.2-0.1,0.3-0.3,0.3-0.5c0-0.1,0-0.5-0.5-0.7
		c-0.3-0.1-0.6-0.2-0.9-0.2c-0.6-0.1-1.1,0-1.3,0.2c-0.1,0.1-0.2,0.2-0.2,0.4c0,0.3,0.1,0.6,0.4,0.8C39.3,14.7,39.7,14.9,40,14.9
		L40,14.9z"/>
	<path class="st1" d="M34.6,20.4c0.3,0,0.6-0.1,0.8-0.2c0.3-0.2,0.5-0.4,0.6-0.7c0-0.2,0-0.3-0.2-0.5c-0.3-0.3-0.8-0.4-1.2-0.5
		c-0.3,0-0.6,0-0.9,0C33.1,18.6,33,19,33,19.1c0,0.2,0.1,0.5,0.2,0.7c0.3,0.3,0.7,0.5,1.1,0.6C34.5,20.4,34.5,20.4,34.6,20.4z"/>
	<path class="st1" d="M34,15.8c-0.4,0.2-0.7,0.6-0.8,0.9c0,0.3,0,0.5,0.2,0.7l0,0c0.2,0.2,0.3,0.2,0.5,0.2c0.3,0,0.6-0.2,0.8-0.3
		l0.2-0.1c0.3-0.1,0.8-0.4,0.7-0.9c0-0.3-0.3-0.5-0.6-0.7C34.8,15.6,34.4,15.6,34,15.8L34,15.8z"/>
	<path class="st1" d="M36.6,15.6c-0.2,0.1-0.3,0.2-0.4,0.4c-0.2,0.5,0.2,1.1,0.7,1.4c0.2,0.1,0.5,0.2,0.8,0.2c0.3,0,0.5-0.1,0.7-0.2
		c0.2-0.1,0.2-0.3,0.2-0.6c0-0.4-0.3-0.8-0.8-1C37.6,15.7,37.1,15.4,36.6,15.6L36.6,15.6z"/>
	<path class="st1" d="M34.6,15.6l0.4-0.1c0.3-0.1,0.6-0.1,0.9-0.1c0.9-0.1,1.4-0.2,1.6-0.6c0.1-0.2,0-0.4-0.1-0.6
		c-0.3-0.4-1.4-0.8-2.6-0.6c-1.2,0.2-2.2,0.8-2.5,1.2c-0.1,0.2-0.1,0.4,0,0.5c0.1,0.3,0.4,0.4,0.8,0.4S33.9,15.7,34.6,15.6
		L34.6,15.6z"/>
	<path class="st1" d="M59.5,11.1c-0.2,0.1-0.3,0.2-0.4,0.4c-0.2,0.5,0.2,1.1,0.7,1.4c0.2,0.1,0.5,0.2,0.8,0.2c0.3,0,0.5-0.1,0.7-0.2
		c0.2-0.1,0.2-0.3,0.2-0.6c0-0.4-0.3-0.8-0.8-1C60.4,11.2,59.9,10.9,59.5,11.1L59.5,11.1z"/>
	<path class="st1" d="M55.9,11.3c0.4,0,0.9-0.1,1.5-0.2l0.4-0.1c0.3-0.1,0.6-0.1,0.9-0.1c0.9-0.1,1.4-0.2,1.6-0.6l0,0
		c0.1-0.2,0-0.4-0.1-0.6c-0.3-0.4-1.4-0.8-2.6-0.6c-1.2,0.2-2.2,0.8-2.5,1.2c-0.1,0.2-0.1,0.4,0,0.5C55.3,11.2,55.6,11.3,55.9,11.3
		L55.9,11.3z"/>
	<path class="st1" d="M28.8,15.9c-0.4-0.2-0.8-0.2-1.1,0c-0.4,0.2-0.7,0.6-0.8,0.9c0,0.3,0,0.5,0.2,0.7c0.2,0.2,0.4,0.2,0.5,0.2
		c0.3,0,0.6-0.2,0.9-0.3l0.2-0.1c0.3-0.1,0.8-0.4,0.7-0.9C29.4,16.3,29.1,16,28.8,15.9L28.8,15.9z"/>
	<path class="st1" d="M31.6,15.9c-0.3-0.2-0.8-0.4-1.3-0.3c-0.2,0.1-0.3,0.2-0.4,0.4c-0.2,0.5,0.2,1.1,0.7,1.4
		c0.2,0.1,0.5,0.2,0.8,0.2c0.3,0,0.5-0.1,0.7-0.2l0,0c0.2-0.1,0.2-0.3,0.2-0.6C32.3,16.6,32,16.2,31.6,15.9L31.6,15.9z"/>
	<path class="st1" d="M31.2,14.9c0.1-0.2,0-0.4-0.1-0.6c-0.3-0.4-1.4-0.8-2.6-0.6c-1.2,0.2-2.2,0.8-2.5,1.2c-0.1,0.2-0.1,0.4,0,0.5
		c0.1,0.3,0.4,0.4,0.8,0.4s0.9-0.1,1.5-0.2l0.4-0.1c0.3-0.1,0.6-0.1,0.9-0.1C30.5,15.4,31,15.3,31.2,14.9L31.2,14.9z"/>
	<path class="st1" d="M13.5,16.1c-0.2-0.1-0.4-0.1-0.6,0c-0.2,0.1-0.3,0.3-0.4,0.5c-0.1,0.2,0,0.3,0.1,0.5c0,0.1,0.2,0.2,0.4,0.2
		c0.1,0,0.2,0,0.4-0.1c0.1-0.1,0.6-0.3,0.4-0.7C13.8,16.3,13.6,16.2,13.5,16.1z"/>
	<path class="st1" d="M18.9,18.5c-0.2-0.1-0.4-0.1-0.6,0c-0.2,0.1-0.3,0.3-0.4,0.5c0,0.2,0,0.3,0,0.5c0,0.1,0.2,0.2,0.5,0.2
		c0.1,0,0.2,0,0.4-0.1c0.1-0.1,0.6-0.3,0.4-0.7C19.2,18.7,19.1,18.5,18.9,18.5z"/>
	<path class="st1" d="M24.4,20.8c-0.2-0.1-0.4-0.1-0.6,0c-0.2,0.1-0.3,0.3-0.4,0.5c0,0.2,0,0.3,0,0.5l0,0c0,0.1,0.2,0.2,0.5,0.2
		c0.1,0,0.2,0,0.4-0.1c0.1-0.1,0.6-0.3,0.4-0.7C24.7,21,24.5,20.9,24.4,20.8z"/>
	<path class="st1" d="M61.6,24.4c-0.2-0.1-0.4-0.1-0.6,0c-0.2,0.1-0.3,0.3-0.4,0.5c0,0.2,0,0.3,0,0.5c0,0.1,0.2,0.2,0.5,0.2
		c0.1,0,0.2,0,0.4-0.1c0.2-0.1,0.6-0.3,0.4-0.7C61.9,24.6,61.7,24.4,61.6,24.4L61.6,24.4z"/>
	<path class="st1" d="M28.9,19.9c-0.2-0.1-0.4-0.1-0.6,0c-0.2,0.1-0.3,0.3-0.4,0.5c0,0.2,0,0.3,0,0.5l0,0c0,0.1,0.2,0.2,0.4,0.2
		c0.1,0,0.2,0,0.4-0.1c0.1-0.1,0.6-0.3,0.4-0.7C29.2,20.1,29.1,19.9,28.9,19.9L28.9,19.9z"/>
	<path class="st1" d="M35,22.3c-0.2-0.1-0.4-0.2-0.6-0.1c-0.1,0-0.2,0.1-0.3,0.2c-0.2,0.3,0,0.7,0.3,0.9c0.1,0.1,0.3,0.1,0.4,0.1
		c0.2,0,0.4-0.1,0.5-0.2l0,0c0.1-0.1,0.1-0.3,0.1-0.4C35.4,22.6,35.3,22.4,35,22.3L35,22.3z"/>
	<path class="st1" d="M24.1,15.6c0-0.1,0-0.3-0.1-0.4c-0.3-0.3-0.9-0.2-1.1-0.2c-0.5,0.1-0.9,0.2-1,0.4c-0.1,0.1-0.1,0.2-0.1,0.3
		c0.1,0.3,0.4,0.4,0.8,0.4c0.2,0,0.3,0,0.5,0C23.9,16.1,24.1,15.8,24.1,15.6z"/>
	<path class="st1" d="M19.5,15.9c-0.5,0.1-0.9,0.2-1,0.4c-0.1,0.1-0.1,0.2-0.1,0.3c0.1,0.4,0.4,0.4,0.8,0.4c0.2,0,0.3,0,0.5,0
		c0.9-0.1,1.1-0.4,1.1-0.6l0,0c0-0.1,0-0.3-0.1-0.4C20.4,15.8,19.8,15.9,19.5,15.9z"/>
	<path class="st1" d="M77,22.7c-0.4-0.2-0.9-0.4-1.5-0.7c-1.5-0.6-3.3-1.5-4.5-2c-3-1.2-5-1.7-5.8-0.9c-0.4,0.4-0.4,1.1,0,2
		c0,0,0,0,0,0l0,0c0.3,0.7,0.6,1.2,0.9,1.7c0,0.1,0.1,0.1,0.1,0.2c0.8,1.3,1.8,1.9,3.2,2.2c0.7,0.2,2.1,0.3,3.6,0.3
		c0.7,0,1.5,0,2.2-0.1c0,0,0,0,0,0c0,0,0,0,0,0c1-0.1,1.9-0.3,2.1-0.5c0.2-0.2,0.3-0.4,0.4-0.7C77.9,23.6,77.6,22.9,77,22.7L77,22.7
		z M75.2,24.4c-0.9-0.3-6.2-2.1-8.4-2.3c-0.1-0.2-0.2-0.4-0.3-0.6c2.7,0.3,6.9,2,8.9,2.8C75.3,24.4,75.2,24.4,75.2,24.4z M65.9,19.9
		c0.1-0.1,0.2-0.1,0.4-0.1c0.6,0,1.8,0.2,4.3,1.2c1.2,0.5,3,1.3,4.5,1.9c0.6,0.3,1.1,0.5,1.5,0.7c0.1,0,0.1,0.1,0.1,0.1
		c-1.2-0.5-7.4-3.2-10.7-3.4C65.8,20.1,65.9,20,65.9,19.9L65.9,19.9z M67.7,23.3c1.2,0.2,2.9,0.7,4.5,1.2c-1,0-1.9-0.1-2.5-0.2
		C68.8,24,68.2,23.8,67.7,23.3z"/>
	<path class="st1" d="M87.8,17.4c0.8,0.2,1.2-1,0.4-1.3S87,17.1,87.8,17.4z"/>
	<path class="st2" d="M89.7,11.5"/>
</g>
<g id="Ebene_2">
	<path class="st3" d="M83.8,14.9c-0.1,0.2,0,0.4,0.2,0.8c0.3,0.6,0.4,0.8,0.6,1c0.1,0.1,0.7,0.5,1.4,0.3c0.1,0,0.6-0.1,0.8-0.5
		c0.3-0.5-0.2-1.1-0.3-1.3c-0.1-0.1-0.5-0.7-1.3-0.8C84.6,14.3,83.9,14.5,83.8,14.9z"/>
	<path class="st3" d="M90.6,17.2c-0.2,0.2-0.5,0.4-1.8,0.8c-0.6,0.2-0.9,0.3-0.9,0.3c0,0,0.2,0.1,1.3,0c0.2,0,0.3,0,0.5,0
		c0.1,0,0.2,0,0.2-0.1h0c0.6,0,0.9,0,1,0.1c0.1,0.3-1.9,1.3-3.3,2c-3.3,1.5-6.1,2.2-7.4,2.6c-5.6,1.4-8.5,2.1-10.1,2.4
		c0,0-7.2,1.1-14,0.9c0,0-0.2,1.3-0.2,1.7c0,2.4-1.3,4.1-2.1,5c-0.5,0.6-0.7,0.7-0.9,0.7c-0.8,0-1.4-1.5-1.8-2.6
		c-0.3-0.7-0.4-1.3-0.6-2.4c-0.1-0.6-0.1-0.8-0.1-1c0.3-1.1,2.1-1.2,2.1-1.5c0-0.3-2.8,0.1-6.3,0c-0.8,0-2.2-0.1-3.8-0.3
		c-1.6-0.2-2.6-0.5-3.4-0.8c-0.5-0.2-0.5-0.2-0.6-0.2c-1.6-0.1-2.4,4-4.6,4.2c0,0,0,0,0,0c-0.1,0-0.7,0-0.8-0.1
		c-0.5-0.1-0.3-2.3-1.5-3.5c-0.1-0.1,0,0-1.9-1.4c-0.7-0.5-1-0.8-1-1c0.1-0.5,1.4-0.6,1.4-0.9c0-0.3-1.3-0.5-2.1-0.6
		c-4.1-0.7-4.4-1.2-5.8-0.9c-1,0.2-1.6,0.6-2.9,1.3c-1.6,0.9-1.7,1.4-3.8,2.9c-0.8,0.6-2.1,1.4-4.7,2.9c-1.4,0.8-2.5,1.5-3.1,1
		c-0.3-0.2-0.3-0.7-0.3-0.8c-0.1-1,1-1.6,2.5-3.2c1-1.1,1.5-2,1.8-2.4c0.6-1,1.2-2.1,1.3-3.5c0.1-1.2-0.2-2.2-0.5-3
		c-0.2-0.5-1.5-4.1-4.1-5.6c-0.3-0.2-1.1-0.6-1.5-1.5c-0.1-0.2-0.3-0.8-0.1-1c0.7-0.9,5.5,0.8,8.2,3.3c1.2,1.1,2.3,2.2,2.3,2.2
		c1.5,1.5,1.4,1.5,1.8,1.8c1.4,0.8,3.1,0.5,4.9,0.2c0.7-0.1,0.5-0.1,1.8-0.4c1.3-0.3,2.5-0.6,3.8-0.9c0.1,0,0.9-0.2,0.9-0.4
		c0-0.1-0.4-0.1-0.8-0.5c0,0-0.4-0.5-0.3-0.8c0.1-0.3,0.7-0.4,1.1-0.4c0.1,0,0.1,0,0.3,0c0.2,0,0.3,0,0.4,0c0,0,0.1,0,0.1,0
		c0.6,0,1.4,0.2,1.4,0.2c0.1,0,1.3,0.4,2.2,0.4c1.3,0.1,2.1-0.3,3.8-0.8c0.1,0,1.9-0.6,3.9-0.9c1.4-0.2,5.1-0.8,5.7-0.9
		c0.6-0.1,1.7-0.2,1.7-0.5c0-0.1-0.2-0.2-1-0.6c-1.2-0.6-1.5-0.8-1.5-1c0-0.2,0.4-0.4,0.7-0.6c1.8-0.9,3.1-3.1,3.5-4.9
		c0.2-0.8,0.1-1.4,0.3-1.5c0.1,0,0.4-0.1,2,1.9c0.5,0.7,1,1.2,1.7,2.2c0.9,1.3,1,1.6,1.6,2.3c0.7,0.8,1,1.2,1.6,1.5
		C60.1,9.2,60.7,9,62.9,9c0,0,0.5,0,2.7,0.1c1.2,0.1,1.7,0.2,5.5,0.8c4.7,0.7,5.9,0.9,7.6,1.5c0.3,0.1,0.7,0.3,1.4,0.5
		c1.9,0.7,3.3,1.1,3.9,1.3c0.6,0.2,0.5,0.1,0.9,0.3c2.7,0.8,2.4,1.1,5.3,2.4c0.2,0.1,0.6,0.2,0.7,0.6C91,16.8,90.7,17.1,90.6,17.2z"
		/>
	<path class="st3" d="M78,13.4"/>
	<path class="st3" d="M74.7,20.3c-0.2-0.3-0.7-0.1-2-0.4c-1-0.2-1.2-0.5-2-0.7c-0.7-0.1-1.1-0.1-2.2,0c-3,0.2-4.2-0.3-4.7,0.5
		c0,0.1-0.3,0.4-0.2,0.8c0.1,0.3,0.3,0.4,1,0.9c0.6,0.4,0.9,0.6,1,0.6c0.3,0.2,1.5,0.7,4,0.8c1.9,0,3.1,0,4.1-0.8
		C74.3,21.5,74.9,20.7,74.7,20.3z"/>
	<path class="st3" d="M82,13.4c0.1,0.4-0.3,0.7-0.6,1.4c-0.8,1.7,0.2,3.6-0.4,4c-0.1,0.1-0.4,0.1-0.6,0.1c-0.3,0-0.5-0.1-0.6-0.2
		c-1.4-0.7-2.1-1.9-2.1-1.9c-0.3-0.5-0.6-1-0.6-1.7c0-0.2,0-0.6,0.2-0.9c0.2-0.4,0.6-0.4,1.6-1c1-0.5,1.1-0.6,1.3-0.6
		C80.9,12.6,81.8,12.9,82,13.4z"/>
	<path class="st3" d="M50.4,8.7"/>
	<path class="st3" d="M50.1,9.5c0.2-0.1,0.6-0.2,1-0.3c0.1,0,0.3-0.1,0.9-0.1C52.8,9,53.6,9,53.8,9c0.5,0,0.8,0,1.1,0
		c0.9,0,1.5,0.1,1.7,0.1c0.7,0,1.8,0.1,3.6-0.1"/>
	<path class="st3" d="M77.2,14.7c-0.3,0.2-0.8,0.6-0.9,1.3c0,0.1,0,0.3,0,0.5c0,0.6,0.1,1.3,0.4,1.8c0.1,0.1,0.1,0.1,1,0.9
		c0.8,0.7,1.4,1.1,1.9,1.1c0.1,0,0.3,0,0.6-0.1c0,0,0.2-0.1,0.3-0.3c0.2-0.3,0.2-0.8-0.1-1.2"/>
	<path class="st3" d="M87.9,18.4c-0.1,0.1-0.4,0.3-0.6,0.4c-0.4,0.3-0.6,0.4-0.8,0.6c-0.3,0.2-0.8,0.5-1.5,0.6
		c-0.3,0.1-0.7,0.2-1.4,0.1c-0.4,0-1.1-0.1-1.7-0.6c-0.4-0.3-0.6-0.6-0.8-0.9"/>
	<path class="st3" d="M48.4,7.2c0.4,0.1,0.8,0.3,1.2,0.5c0.9,0.5,1.6,1,2.1,1.4"/>
	<path class="st3" d="M50.7,5.1c0.5,0.4,1.1,0.9,1.7,1.4c0.9,0.9,1.8,1.7,2.5,2.5"/>
	<path class="st3" d="M19.2,15c-0.1,0.2-0.3,0.5-0.5,0.9C18.2,16.7,18,17,18,17.3c-0.2,0.7-0.1,1.4,0.1,2.2c0.1,0.6,0.4,1.4,1.1,2.4
		"/>
	<path class="st3" d="M18.8,15.7c-0.2-0.1-0.5-0.3-0.8-0.6c-1.6-1.2-2.3-2-3.1-2.7c-0.4-0.4-2.2-2-4.7-3.1c-1.4-0.6-2.6-0.9-3.4-1"
		/>
	<path class="st3" d="M7.3,9.4c0.3,0,0.8,0.1,1.4,0.3c0.5,0.1,2.1,0.6,4.2,2.3c1.5,1.2,1.5,1.6,2.9,2.6c1.1,0.8,2.1,1.3,2.8,1.6"/>
	<path class="st3" d="M18.1,16.7c-0.6-0.2-1.1-0.4-1.5-0.6c-0.2-0.1-1-0.5-2.2-1.5c-0.7-0.6-1-0.9-1.4-1.3c-0.7-0.6-1.8-1.5-3.5-2.2
		"/>
	<path class="st3" d="M18,17.3c-0.8-0.1-1.4-0.3-1.8-0.4c-0.2-0.1-0.7-0.3-1.3-0.7c-0.6-0.4-0.9-0.7-1.2-1c-0.5-0.5-1.2-1.1-2.3-1.7
		"/>
	<path class="st3" d="M17.7,17.9c-0.3,0-0.8,0-1.4-0.1c-0.6-0.1-1.1-0.4-1.9-0.8c-0.5-0.2-1.1-0.6-1.9-1.1"/>
	<path class="st3" d="M17.8,18.3c-0.5,0.1-1.4,0.3-2.4,0.2c-1.1-0.1-2-0.5-2.5-0.8"/>
	<path class="st3" d="M18.3,20c-0.5,0.3-1.2,0.7-2.1,1.1c-0.3,0.2-0.8,0.4-1.1,0.6c-0.7,0.3-1.9,0.7-3.6,0.8"/>
	<path class="st3" d="M18.4,20.6c-0.3,0.3-0.9,0.7-1.6,1.2c-0.9,0.6-1.7,1-4.1,2c-0.8,0.3-1.9,0.8-3.1,1.3"/>
	<path class="st3" d="M18.6,21.3c-0.2,0.2-0.5,0.6-0.9,0.9c-1.2,1.1-2.2,1.4-4.5,2.6c-0.3,0.2-1.4,0.7-2.6,1.4
		c-1.3,0.8-2.4,1.5-3,1.9"/>
	<path class="st3" d="M29.6,21.9c0.5,0.2,1.2,0.4,2.1,0.6c2,0.5,2.8,0.5,4,0.9c0.8,0.2,1.9,0.7,3.1,1.6"/>
	<path class="st3" d="M34.9,23.3c-0.3,0.4-0.7,0.8-1.2,1.3c-0.6,0.5-1.3,0.9-1.8,1.2"/>
	<path class="st3" d="M37.2,24.1c-0.2,0.2-0.5,0.4-0.8,0.7c-1,1-1.3,1.5-2,2.1c-0.4,0.3-0.9,0.7-1.7,0.9"/>
	<path class="st3" d="M52.2,26c0.4-0.1,1-0.2,1.6-0.2c0.9,0,1.7,0.1,2.2,0.3"/>
	<path class="st3" d="M52.7,26c-0.1,0.3-0.2,0.8-0.6,1.3c-0.7,0.8-1.6,1-1.9,1"/>
	<path class="st3" d="M53.4,25.9c-0.1,0.4-0.2,0.9-0.4,1.5c-0.7,1.4-1.8,2.1-2.3,2.4"/>
	<path class="st3" d="M54,25.9c0,0.2,0,0.6-0.1,0.9c0,0.2-0.2,1.1-0.8,2c-0.7,1.2-1.6,1.8-2.2,2.1"/>
	<path class="st3" d="M54.8,26c0,1-0.1,1.8-0.2,2.3c-0.3,1.4-1,2.4-1.4,3c-0.4,0.7-0.9,1.1-1.2,1.5"/>
	<path class="st3" d="M63.8,19.7c0.7,0.3,1.6,0.5,2.7,0.6c2.4,0.3,4.4-0.2,5.7-0.6"/>
	<path class="st3" d="M63.9,20.9c0.8,0.2,1.8,0.3,2.8,0.3c3.1,0.1,5.7-0.4,7.6-1"/>
	<path class="st3" d="M74.5,21.2c-0.6,0.2-1.3,0.3-1.9,0.5c-2.4,0.5-4.6,0.6-6.6,0.5"/>
	<path class="st3" d="M86,30.6"/>
	<path class="st3" d="M83.1,28.2"/>
	<path class="st4" d="M85.1,15.6c0.1-0.2,0.1-0.2,0.1-0.2c0,0-0.3,0.3-0.2,0.5c0,0.1,0.1,0.1,0.2,0.2c0.1,0,0.3,0.1,0.4,0.1
		c0.1-0.1,0.1-0.2,0.1-0.2c0-0.1,0.1-0.2,0-0.3c-0.1-0.1-0.2-0.2-0.3-0.2c-0.1-0.1-0.3,0-0.3,0"/>
	<path class="st4" d="M74.5,13c0,0-0.1,0.1-0.1,0.2c0,0.1,0.1,0.1,0.2,0.1c0.1,0,0.2,0,0.3-0.1c0,0,0.1-0.1,0.1-0.3
		c0-0.1-0.2-0.1-0.2-0.1C74.7,12.9,74.5,13,74.5,13z"/>
	<path class="st4" d="M73.5,12c0,0-0.1,0.1-0.1,0.2c0,0.1,0.1,0.1,0.1,0.2c0.1,0,0.2,0,0.3-0.1c0,0,0.1-0.1,0.1-0.3
		c0-0.1-0.1-0.2-0.1-0.2C73.6,11.8,73.5,11.9,73.5,12z"/>
	<path class="st4" d="M72.4,13.8c0,0-0.1,0.1-0.1,0.2c0,0.1,0.2,0.1,0.2,0.1c0.2,0,0.3,0,0.4-0.1c0,0,0.2-0.1,0.1-0.2
		c0-0.1-0.2-0.1-0.2-0.1C72.6,13.6,72.5,13.7,72.4,13.8z"/>
	<path class="st4" d="M73.3,13.1C73.3,13.1,73.3,13.1,73.3,13.1C73.3,13.2,73.4,13.2,73.3,13.1c0.1,0.1,0.1,0.1,0.1,0.1
		c0,0,0,0,0-0.1C73.5,13.1,73.4,13,73.3,13.1C73.4,13,73.4,13.1,73.3,13.1z"/>
	<path class="st4" d="M70,11.2c0,0,0.1,0.1,0.2,0.1c0.1,0,0.1-0.1,0.1-0.1c0-0.1,0-0.2,0-0.3c0,0-0.1-0.1-0.2-0.1
		c-0.1,0-0.1,0.1-0.1,0.1C69.8,11.1,69.9,11.2,70,11.2z"/>
	<path class="st4" d="M69,11.9c0,0,0.1,0.1,0.2,0.1c0.1,0,0.1-0.1,0.1-0.1c0-0.1,0-0.2,0-0.2c0,0-0.1-0.1-0.2-0.1
		c-0.1,0-0.1,0.1-0.1,0.1C68.8,11.8,68.9,11.9,69,11.9z"/>
	<path class="st4" d="M70.3,13c0,0,0.1,0.1,0.1,0.1c0.1,0,0.1-0.1,0.1-0.1c0-0.1,0-0.3,0-0.3c0,0-0.1-0.2-0.2-0.1
		c-0.1,0-0.1,0.2-0.1,0.2C70.2,12.8,70.3,13,70.3,13z"/>
	<path class="st4" d="M70,13.5C69.9,13.6,69.9,13.6,70,13.5C69.9,13.6,70,13.6,70,13.5c0.1,0.1,0.1,0.1,0.1,0.1c0,0,0,0,0-0.1
		C70.1,13.5,70,13.5,70,13.5C70,13.5,70,13.5,70,13.5z"/>
	<path class="st4" d="M71.3,11.6C71.3,11.6,71.3,11.6,71.3,11.6C71.3,11.7,71.3,11.7,71.3,11.6c0.1,0.1,0.1,0.1,0.1,0.1
		c0,0,0,0,0-0.1C71.4,11.6,71.4,11.5,71.3,11.6C71.4,11.5,71.3,11.6,71.3,11.6z"/>
	<path class="st4" d="M71.7,12.8C71.7,12.8,71.7,12.8,71.7,12.8C71.7,12.8,71.7,12.9,71.7,12.8c0.1,0.1,0.1,0.1,0.1,0.1
		c0,0,0,0,0-0.1C71.8,12.7,71.8,12.7,71.7,12.8C71.8,12.7,71.7,12.8,71.7,12.8z"/>
	<path class="st4" d="M69,13.8c0,0-0.1,0.1-0.1,0.2c0,0.1,0.1,0.1,0.1,0.2c0.1,0,0.2,0,0.3-0.1c0,0,0.1-0.1,0.1-0.3
		c0-0.1-0.1-0.2-0.1-0.2C69.1,13.6,69,13.8,69,13.8z"/>
	<path class="st4" d="M66.2,13.5c0,0-0.1,0.1-0.1,0.2c0,0.1,0.2,0.1,0.2,0.1c0.2,0,0.3,0,0.4-0.1c0,0,0.2-0.1,0.1-0.2
		c0-0.1-0.2-0.1-0.2-0.1C66.4,13.4,66.3,13.5,66.2,13.5z"/>
	<path class="st4" d="M67.7,11.1C67.7,11.1,67.7,11.1,67.7,11.1C67.7,11.1,67.7,11.2,67.7,11.1c0.1,0.1,0.1,0.1,0.1,0.1
		c0,0,0,0,0-0.1C67.9,11,67.8,11,67.7,11.1C67.8,11,67.7,11.1,67.7,11.1z"/>
	<path class="st4" d="M65,11.9c0,0,0.1-0.1,0.1-0.1c0-0.1-0.1-0.1-0.1-0.2c-0.1-0.1-0.2-0.1-0.3,0c0,0-0.1,0.1-0.2,0.2
		c0,0.1,0.1,0.2,0.1,0.2C64.8,12,65,11.9,65,11.9z"/>
	<path class="st4" d="M65.5,13c0,0,0.1-0.1,0.1-0.2c0-0.1,0-0.1,0-0.2c-0.1-0.1-0.2-0.1-0.2,0c0,0-0.1,0.1-0.1,0.2
		c0,0.1,0.1,0.2,0.1,0.2C65.3,13.1,65.5,13,65.5,13z"/>
	<path class="st4" d="M66.8,12c0,0,0.1,0,0.1-0.1c0-0.1-0.1-0.1-0.1-0.1c-0.1-0.1-0.2-0.1-0.3-0.1c0,0-0.2,0-0.2,0.1
		c0,0.1,0.1,0.2,0.1,0.2C66.7,12,66.8,12,66.8,12z"/>
	<path class="st4" d="M67.3,12.4C67.3,12.5,67.3,12.5,67.3,12.4C67.4,12.5,67.4,12.5,67.3,12.4C67.4,12.4,67.4,12.4,67.3,12.4
		c0.1-0.1,0.1-0.1,0-0.1C67.3,12.3,67.3,12.3,67.3,12.4C67.3,12.4,67.3,12.4,67.3,12.4z"/>
	<path class="st4" d="M65.7,10.7C65.7,10.7,65.7,10.7,65.7,10.7C65.8,10.7,65.8,10.7,65.7,10.7C65.8,10.6,65.8,10.6,65.7,10.7
		c0.1-0.1,0.1-0.1,0-0.1C65.7,10.5,65.7,10.6,65.7,10.7C65.7,10.6,65.7,10.7,65.7,10.7z"/>
	<path class="st4" d="M63.4,11.1C63.4,11.1,63.4,11.1,63.4,11.1C63.4,11.1,63.4,11.2,63.4,11.1c0.1,0.1,0.1,0.1,0.1,0.1
		c0,0,0,0,0-0.1C63.6,11,63.5,11,63.4,11.1C63.5,11,63.4,11.1,63.4,11.1z"/>
	<path class="st4" d="M58.4,13.4c0,0-0.1-0.1-0.2-0.1c-0.1,0-0.1,0.1-0.1,0.1c-0.1,0.1,0,0.2,0,0.3c0,0,0.1,0.1,0.2,0.1
		c0.1,0,0.1-0.1,0.1-0.1C58.5,13.5,58.4,13.4,58.4,13.4z"/>
	<path class="st4" d="M60.3,12.3c0,0-0.1-0.1-0.2-0.1c-0.1,0-0.1,0.1-0.1,0.1c-0.1,0.1,0,0.2,0,0.2c0,0,0.1,0.1,0.2,0.1
		c0.1,0,0.1-0.1,0.1-0.1C60.5,12.4,60.4,12.3,60.3,12.3z"/>
	<path class="st4" d="M59,11.8c0,0-0.1-0.1-0.1-0.1c-0.1,0-0.1,0.1-0.1,0.1c0,0.1,0,0.3,0,0.3c0,0,0.1,0.2,0.2,0.1
		c0.1,0,0.1-0.2,0.1-0.2C59.1,11.9,59,11.8,59,11.8z"/>
	<path class="st4" d="M57.8,11.3C57.9,11.3,57.9,11.3,57.8,11.3C57.9,11.2,57.8,11.2,57.8,11.3c0-0.1-0.1-0.1-0.1-0.1c0,0,0,0,0,0.1
		C57.7,11.3,57.8,11.3,57.8,11.3C57.8,11.4,57.8,11.3,57.8,11.3z"/>
	<path class="st4" d="M59.8,10.5c0,0,0.1-0.1,0.1-0.2c0-0.1-0.1-0.2-0.1-0.2c-0.1,0-0.2,0-0.3,0.1c0,0-0.1,0.1-0.1,0.3
		c0,0.1,0.1,0.2,0.1,0.2C59.7,10.7,59.8,10.6,59.8,10.5z"/>
	<path class="st4" d="M62.1,10.9c0,0,0.1-0.1,0.1-0.2c0-0.1-0.2-0.1-0.2-0.1c-0.2,0-0.3,0-0.4,0.1c0,0-0.2,0.1-0.1,0.2
		c0,0.1,0.2,0.1,0.2,0.1C61.9,11,62.1,10.9,62.1,10.9z"/>
	<path class="st4" d="M60,13.8C60.1,13.8,60.1,13.8,60,13.8C60.1,13.7,60,13.7,60,13.8c0-0.1-0.1-0.1-0.1-0.1c0,0,0,0,0,0.1
		C59.9,13.8,60,13.9,60,13.8C60,13.9,60,13.8,60,13.8z"/>
	<path class="st4" d="M62,12.3c0,0-0.1,0.1-0.1,0.1c0,0.1,0.1,0.1,0.1,0.2c0.1,0.1,0.2,0.1,0.3,0c0,0,0.1-0.1,0.2-0.2
		c0-0.1-0.1-0.2-0.1-0.2C62.2,12.2,62,12.2,62,12.3z"/>
	<path class="st4" d="M63.4,12.1c0,0-0.1,0.1-0.1,0.2c0,0.1,0,0.1,0,0.2c0.1,0.1,0.2,0.1,0.2,0c0,0,0.1-0.1,0.1-0.2
		c0-0.1-0.1-0.2-0.1-0.2C63.5,12,63.4,12.1,63.4,12.1z"/>
	<path class="st4" d="M62.2,13.6c0,0-0.1,0-0.1,0.1c0,0.1,0.1,0.1,0.1,0.2c0.1,0.1,0.2,0.1,0.3,0.1c0,0,0.2,0,0.2-0.1
		c0-0.1-0.1-0.2-0.1-0.2C62.4,13.5,62.2,13.6,62.2,13.6z"/>
	<path class="st4" d="M61.6,14.7C61.6,14.7,61.5,14.7,61.6,14.7C61.5,14.7,61.5,14.7,61.6,14.7C61.4,14.7,61.5,14.8,61.6,14.7
		c-0.1,0.1-0.1,0.1,0,0.1C61.5,14.8,61.6,14.8,61.6,14.7C61.6,14.7,61.6,14.7,61.6,14.7z"/>
	<path class="st4" d="M64.3,13.9C64.3,13.9,64.4,13.8,64.3,13.9C64.4,13.8,64.3,13.8,64.3,13.9c0-0.1-0.1-0.1-0.1-0.1c0,0,0,0,0,0.1
		C64.2,13.9,64.2,13.9,64.3,13.9C64.3,13.9,64.3,13.9,64.3,13.9z"/>
	<path class="st4" d="M56.7,11.6c0,0,0.1-0.1,0.1-0.1c0-0.1-0.1-0.1-0.1-0.2c-0.1-0.1-0.2-0.1-0.3,0c0,0-0.1,0.1-0.2,0.2
		c0,0.1,0.1,0.2,0.1,0.2C56.5,11.6,56.6,11.6,56.7,11.6z"/>
	<path class="st4" d="M57.2,12.7c0,0,0.1-0.1,0.1-0.2c0-0.1,0-0.1,0-0.2c-0.1-0.1-0.2-0.1-0.2,0c0,0-0.1,0.1-0.1,0.2
		c0,0.1,0.1,0.2,0.1,0.2C57,12.8,57.1,12.7,57.2,12.7z"/>
	<path class="st4" d="M55.1,10.7C55.1,10.8,55.1,10.8,55.1,10.7C55.1,10.8,55.1,10.8,55.1,10.7c0.1,0.1,0.1,0.1,0.1,0.1
		c0,0,0,0,0-0.1C55.2,10.7,55.2,10.7,55.1,10.7C55.1,10.7,55.1,10.7,55.1,10.7z"/>
	<path class="st4" d="M50.1,13.1c0,0-0.1-0.1-0.2-0.1c-0.1,0-0.1,0.1-0.1,0.1c-0.1,0.1,0,0.2,0,0.3c0,0,0.1,0.1,0.2,0.1
		c0.1,0,0.1-0.1,0.1-0.1C50.2,13.2,50.1,13.1,50.1,13.1z"/>
	<path class="st4" d="M52,12c0,0-0.1-0.1-0.2-0.1c-0.1,0-0.1,0.1-0.1,0.1c-0.1,0.1,0,0.2,0,0.2c0,0,0.1,0.1,0.2,0.1
		c0.1,0,0.1-0.1,0.1-0.1C52.1,12.1,52,12,52,12z"/>
	<path class="st4" d="M50.7,11.5c0,0-0.1-0.1-0.1-0.1c-0.1,0-0.1,0.1-0.1,0.1c0,0.1,0,0.3,0,0.3c0,0,0.1,0.2,0.2,0.1
		c0.1,0,0.1-0.2,0.1-0.2C50.7,11.6,50.7,11.5,50.7,11.5z"/>
	<path class="st4" d="M49.5,11C49.5,11,49.6,11,49.5,11C49.5,10.9,49.5,10.9,49.5,11c0-0.1-0.1-0.1-0.1-0.1c0,0,0,0,0,0.1
		C49.4,11,49.4,11,49.5,11C49.5,11,49.5,11,49.5,11z"/>
	<path class="st4" d="M51.7,13.5C51.7,13.5,51.8,13.5,51.7,13.5C51.7,13.4,51.7,13.4,51.7,13.5c0-0.1-0.1-0.1-0.1-0.1c0,0,0,0,0,0.1
		C51.6,13.5,51.6,13.5,51.7,13.5C51.7,13.5,51.7,13.5,51.7,13.5z"/>
	<path class="st4" d="M53.7,11.9c0,0-0.1,0.1-0.1,0.1c0,0.1,0.1,0.1,0.1,0.2c0.1,0.1,0.2,0.1,0.3,0c0,0,0.1-0.1,0.2-0.2
		c0-0.1-0.1-0.2-0.1-0.2C53.9,11.9,53.7,11.9,53.7,11.9z"/>
	<path class="st4" d="M55.1,11.8c0,0-0.1,0.1-0.1,0.2c0,0.1,0,0.1,0,0.2c0.1,0.1,0.2,0.1,0.2,0c0,0,0.1-0.1,0.1-0.2
		c0-0.1-0.1-0.2-0.1-0.2C55.2,11.7,55.1,11.8,55.1,11.8z"/>
	<path class="st4" d="M53.9,13.2c0,0-0.1,0-0.1,0.1c0,0.1,0.1,0.1,0.1,0.2c0.1,0.1,0.2,0.1,0.3,0.1c0,0,0.2,0,0.2-0.1
		c0-0.1-0.1-0.2-0.1-0.2C54,13.2,53.9,13.2,53.9,13.2z"/>
	<path class="st4" d="M53.2,14.4C53.2,14.4,53.2,14.3,53.2,14.4C53.2,14.3,53.1,14.4,53.2,14.4C53.1,14.4,53.1,14.4,53.2,14.4
		c-0.1,0.1-0.1,0.1,0,0.1C53.2,14.5,53.2,14.5,53.2,14.4C53.3,14.4,53.2,14.4,53.2,14.4z"/>
	<path class="st4" d="M56,13.6C56,13.5,56,13.5,56,13.6C56,13.5,56,13.5,56,13.6c0-0.1-0.1-0.1-0.1-0.1c0,0,0,0,0,0.1
		C55.9,13.6,55.9,13.6,56,13.6C56,13.6,56,13.6,56,13.6z"/>
	<path class="st4" d="M57.6,10.3c0,0,0.1-0.1,0.1-0.2c0-0.1,0-0.1,0-0.2c-0.1-0.1-0.2-0.1-0.2,0c0,0-0.1,0.1-0.1,0.2
		c0,0.1,0.1,0.2,0.1,0.2C57.4,10.4,57.6,10.3,57.6,10.3z"/>
	<path class="st4" d="M53.3,11c0,0,0.1-0.1,0.1-0.2c0-0.1,0-0.1,0-0.2c-0.1-0.1-0.2-0.1-0.2,0c0,0-0.1,0.1-0.1,0.2
		c0,0.1,0.1,0.2,0.1,0.2C53.2,11.1,53.3,11,53.3,11z"/>
	<path class="st4" d="M48.1,11.8c0,0,0.1-0.1,0.1-0.1c0-0.1-0.1-0.1-0.1-0.2c-0.1-0.1-0.2-0.1-0.3,0c0,0-0.1,0.1-0.2,0.2
		c0,0.1,0.1,0.2,0.1,0.2C47.9,11.9,48,11.9,48.1,11.8z"/>
	<path class="st4" d="M48.6,13c0,0,0.1-0.1,0.1-0.2c0-0.1,0-0.1,0-0.2c-0.1-0.1-0.2-0.1-0.2,0c0,0-0.1,0.1-0.1,0.2
		c0,0.1,0.1,0.2,0.1,0.2C48.4,13.1,48.5,13,48.6,13z"/>
	<path class="st4" d="M46.5,11C46.5,11,46.5,11,46.5,11C46.5,11.1,46.5,11.1,46.5,11c0.1,0.1,0.1,0.1,0.1,0.1c0,0,0,0,0-0.1
		C46.6,11,46.6,11,46.5,11C46.5,11,46.5,11,46.5,11z"/>
	<path class="st4" d="M43.4,12.2c0,0-0.1-0.1-0.2-0.1c-0.1,0-0.1,0.1-0.1,0.1c-0.1,0.1,0,0.2,0,0.2c0,0,0.1,0.1,0.2,0.1
		c0.1,0,0.1-0.1,0.1-0.1C43.5,12.4,43.4,12.3,43.4,12.2z"/>
	<path class="st4" d="M43.1,13.8C43.1,13.8,43.2,13.7,43.1,13.8C43.1,13.7,43.1,13.7,43.1,13.8c0-0.1-0.1-0.1-0.1-0.1c0,0,0,0,0,0.1
		C43,13.8,43,13.8,43.1,13.8C43.1,13.8,43.1,13.8,43.1,13.8z"/>
	<path class="st4" d="M45.1,12.2c0,0-0.1,0.1-0.1,0.1c0,0.1,0.1,0.1,0.1,0.2c0.1,0.1,0.2,0.1,0.3,0c0,0,0.1-0.1,0.2-0.2
		c0-0.1-0.1-0.2-0.1-0.2C45.3,12.1,45.1,12.2,45.1,12.2z"/>
	<path class="st4" d="M46.5,12c0,0-0.1,0.1-0.1,0.2c0,0.1,0,0.1,0,0.2c0.1,0.1,0.2,0.1,0.2,0c0,0,0.1-0.1,0.1-0.2
		c0-0.1-0.1-0.2-0.1-0.2C46.6,12,46.5,12,46.5,12z"/>
	<path class="st4" d="M45.3,13.5c0,0-0.1,0-0.1,0.1c0,0.1,0.1,0.1,0.1,0.2c0.1,0.1,0.2,0.1,0.3,0.1c0,0,0.2,0,0.2-0.1
		c0-0.1-0.1-0.2-0.1-0.2C45.4,13.5,45.3,13.5,45.3,13.5z"/>
	<path class="st4" d="M44.6,14.6C44.6,14.6,44.6,14.6,44.6,14.6C44.6,14.6,44.5,14.6,44.6,14.6C44.5,14.7,44.5,14.7,44.6,14.6
		c-0.1,0.1-0.1,0.1,0,0.1C44.6,14.8,44.6,14.7,44.6,14.6C44.7,14.7,44.6,14.6,44.6,14.6z"/>
	<path class="st4" d="M47.4,13.8C47.4,13.8,47.4,13.8,47.4,13.8C47.4,13.7,47.4,13.7,47.4,13.8c0-0.1-0.1-0.1-0.1-0.1c0,0,0,0,0,0.1
		C47.3,13.8,47.3,13.9,47.4,13.8C47.4,13.9,47.4,13.8,47.4,13.8z"/>
	<path class="st4" d="M51.7,10.7C51.7,10.7,51.7,10.7,51.7,10.7C51.6,10.7,51.6,10.7,51.7,10.7C51.6,10.8,51.6,10.8,51.7,10.7
		c-0.1,0.1-0.1,0.1,0,0.1C51.7,10.9,51.7,10.8,51.7,10.7C51.7,10.8,51.7,10.7,51.7,10.7z"/>
	<path class="st4" d="M38.8,13.9c0,0-0.1-0.1-0.2-0.1c-0.1,0-0.1,0.1-0.1,0.1c0,0.1,0,0.2,0.1,0.3c0,0,0.1,0.1,0.2,0.1
		c0.1,0,0.1-0.1,0.1-0.2C38.9,14,38.8,13.9,38.8,13.9z"/>
	<path class="st4" d="M40.5,13.9C40.5,13.9,40.5,13.9,40.5,13.9C40.5,13.9,40.4,13.9,40.5,13.9c-0.1-0.1-0.1-0.1-0.1,0
		c0,0,0,0,0,0.1C40.3,14,40.4,14,40.5,13.9C40.4,14,40.5,14,40.5,13.9z"/>
	<path class="st4" d="M42.1,14.4C42.1,14.4,42.1,14.4,42.1,14.4C42.1,14.4,42,14.5,42.1,14.4c-0.1,0-0.1,0.1-0.1,0.1c0,0,0,0,0.1,0
		C42.2,14.6,42.2,14.5,42.1,14.4C42.2,14.5,42.1,14.4,42.1,14.4z"/>
	<path class="st4" d="M37.3,14.2c0,0,0.1-0.1,0.1-0.2c0-0.1-0.1-0.1-0.1-0.1c-0.1-0.1-0.2,0-0.2,0c0,0-0.1,0.1-0.1,0.2
		c0,0.1,0.1,0.1,0.1,0.1C37.2,14.3,37.2,14.2,37.3,14.2z"/>
	<path class="st4" d="M32.1,14.7c0,0-0.1-0.1-0.2,0c-0.1,0-0.1,0.1-0.1,0.1c0,0.1,0,0.2,0.1,0.2c0,0,0.1,0.1,0.2,0
		c0.1,0,0.1-0.1,0.1-0.1C32.2,14.7,32.1,14.7,32.1,14.7z"/>
	<path class="st4" d="M32.2,16.2C32.2,16.2,32.2,16.2,32.2,16.2C32.2,16.1,32.1,16.1,32.2,16.2c-0.1-0.1-0.1-0.1-0.1,0
		c0,0,0,0,0,0.1C32,16.3,32.1,16.3,32.2,16.2C32.1,16.3,32.2,16.2,32.2,16.2z"/>
	<path class="st4" d="M33.7,14.2c0,0-0.1,0.1-0.1,0.2c0,0.1,0.1,0.1,0.1,0.1c0.1,0.1,0.2,0,0.3,0c0,0,0.1-0.1,0.1-0.2
		c0-0.1-0.1-0.1-0.1-0.1C33.9,14.1,33.7,14.2,33.7,14.2z"/>
	<path class="st4" d="M35,13.7c0,0-0.1,0.1-0.1,0.2c0,0.1,0.1,0.1,0.1,0.1c0.1,0.1,0.2,0,0.2,0c0,0,0.1-0.1,0.1-0.2
		c0-0.1-0.1-0.1-0.1-0.1C35.1,13.6,35,13.7,35,13.7z"/>
	<path class="st4" d="M34.2,15.5c0,0-0.1,0.1-0.1,0.1c0,0.1,0.1,0.1,0.1,0.1c0.1,0,0.3,0,0.3,0c0,0,0.2-0.1,0.1-0.2
		c0-0.1-0.2-0.1-0.2-0.1C34.3,15.4,34.2,15.5,34.2,15.5z"/>
	<path class="st4" d="M33.8,16.7C33.8,16.7,33.8,16.7,33.8,16.7C33.8,16.7,33.7,16.7,33.8,16.7c-0.1,0-0.1,0.1-0.1,0.1
		c0,0,0,0,0.1,0C33.9,16.8,33.9,16.8,33.8,16.7C33.9,16.7,33.8,16.7,33.8,16.7z"/>
	<path class="st4" d="M36.4,15.3C36.4,15.3,36.4,15.2,36.4,15.3C36.4,15.2,36.3,15.2,36.4,15.3c-0.1-0.1-0.1-0.1-0.1,0
		c0,0,0,0,0,0.1C36.2,15.3,36.3,15.3,36.4,15.3C36.3,15.3,36.3,15.3,36.4,15.3z"/>
	<path class="st4" d="M39.9,12.8c0,0-0.1,0-0.1,0.1c0,0.1,0.1,0.1,0.1,0.2c0.1,0.1,0.2,0.1,0.3,0.1c0,0,0.2,0,0.2-0.1
		c0-0.1-0.1-0.2-0.1-0.2C40,12.8,39.9,12.8,39.9,12.8z"/>
	<path class="st4" d="M41.9,12.6C41.9,12.6,41.9,12.5,41.9,12.6C41.8,12.5,41.8,12.6,41.9,12.6C41.8,12.6,41.8,12.6,41.9,12.6
		c-0.1,0.1-0.1,0.1,0,0.1C41.9,12.7,41.9,12.7,41.9,12.6C41.9,12.6,41.9,12.6,41.9,12.6z"/>
	<path class="st4" d="M41.1,15c0,0,0.1,0.1,0,0.1c0,0-0.1,0-0.1,0c-0.1,0-0.2-0.1-0.2-0.1c0,0-0.1-0.1,0-0.1c0,0,0.1,0,0.1,0
		C41,14.9,41.1,15,41.1,15z"/>
	<path class="st4" d="M38.7,15.4C38.7,15.4,38.7,15.4,38.7,15.4C38.7,15.4,38.7,15.4,38.7,15.4C38.6,15.4,38.6,15.5,38.7,15.4
		c-0.1,0.1-0.1,0.1,0,0.1C38.7,15.5,38.7,15.5,38.7,15.4C38.8,15.5,38.7,15.4,38.7,15.4z"/>
	<path class="st4" d="M25.2,16.4c0,0-0.1-0.1-0.2-0.1c-0.1,0-0.1,0.1-0.1,0.1c0,0.1,0,0.2,0.1,0.3c0,0,0.1,0.1,0.2,0.1
		c0.1,0,0.1-0.1,0.1-0.2C25.3,16.5,25.2,16.4,25.2,16.4z"/>
	<path class="st4" d="M26.8,16.5C26.9,16.5,26.9,16.5,26.8,16.5C26.8,16.4,26.8,16.4,26.8,16.5c-0.1-0.1-0.1-0.1-0.1,0
		c0,0,0,0,0,0.1C26.7,16.6,26.8,16.6,26.8,16.5C26.8,16.6,26.8,16.5,26.8,16.5z"/>
	<path class="st4" d="M28.9,15.8c0,0-0.1,0.1-0.1,0.1c0,0.1,0.1,0.1,0.1,0.1c0.1,0.1,0.3,0,0.3,0c0,0,0.2-0.1,0.1-0.2
		c0-0.1-0.2-0.1-0.2-0.1C29,15.8,28.9,15.8,28.9,15.8z"/>
	<path class="st4" d="M28.5,17.1C28.5,17.1,28.5,17,28.5,17.1C28.4,17,28.4,17.1,28.5,17.1c-0.1,0-0.1,0.1-0.1,0.1c0,0,0,0,0.1,0
		C28.5,17.2,28.5,17.2,28.5,17.1C28.5,17.1,28.5,17.1,28.5,17.1z"/>
	<path class="st4" d="M31.1,15.7C31.1,15.7,31.1,15.7,31.1,15.7C31.1,15.6,31,15.6,31.1,15.7c-0.1-0.1-0.1-0.1-0.1,0c0,0,0,0,0,0.1
		C30.9,15.8,31,15.8,31.1,15.7C31,15.8,31.1,15.7,31.1,15.7z"/>
	<path class="st4" d="M23.6,16.6c0,0,0.1-0.1,0.1-0.2c0-0.1-0.1-0.1-0.1-0.1c-0.1-0.1-0.2,0-0.2,0c0,0-0.1,0.1-0.1,0.2
		c0,0.1,0.1,0.1,0.1,0.1C23.5,16.7,23.6,16.6,23.6,16.6z"/>
	<path class="st4" d="M22.7,17.7C22.7,17.7,22.7,17.6,22.7,17.7C22.7,17.6,22.7,17.6,22.7,17.7c-0.1-0.1-0.1-0.1-0.1,0
		c0,0,0,0,0,0.1C22.6,17.7,22.6,17.7,22.7,17.7C22.6,17.7,22.7,17.7,22.7,17.7z"/>
	<path class="st4" d="M30.5,16.9C30.5,16.9,30.6,16.8,30.5,16.9C30.6,16.8,30.5,16.8,30.5,16.9c0-0.1-0.1-0.1-0.1-0.1c0,0,0,0,0,0.1
		C30.4,16.9,30.4,16.9,30.5,16.9C30.5,16.9,30.5,16.9,30.5,16.9z"/>
	<path class="st4" d="M30.1,14.6c0,0-0.1-0.1-0.2-0.1c-0.1,0-0.1,0.1-0.1,0.1c0,0.1,0,0.2,0.1,0.3c0,0,0.1,0.1,0.2,0.1
		c0.1,0,0.1-0.1,0.1-0.2C30.2,14.7,30.1,14.6,30.1,14.6z"/>
	<path class="st4" d="M33.2,15.2c0,0-0.1-0.1-0.2-0.1c-0.1,0-0.1,0.1-0.1,0.1c0,0.1,0,0.2,0.1,0.3c0,0,0.1,0.1,0.2,0.1
		c0.1,0,0.1-0.1,0.1-0.2C33.3,15.4,33.2,15.3,33.2,15.2z"/>
	<path class="st4" d="M22.2,16.5c0,0-0.1-0.1-0.2-0.1c-0.1,0-0.1,0.1-0.1,0.1c0,0.1,0,0.2,0.1,0.3c0,0,0.1,0.1,0.2,0.1
		c0.1,0,0.1-0.1,0.1-0.2C22.4,16.7,22.2,16.6,22.2,16.5z"/>
	<path class="st4" d="M20.6,16.6C20.6,16.6,20.6,16.6,20.6,16.6C20.6,16.5,20.6,16.5,20.6,16.6c0-0.1-0.1-0.1-0.1-0.1c0,0,0,0,0,0.1
		C20.5,16.6,20.5,16.7,20.6,16.6C20.6,16.7,20.6,16.6,20.6,16.6z"/>
	<path class="st4" d="M21.2,17.6C21.2,17.6,21.3,17.6,21.2,17.6C21.2,17.5,21.2,17.5,21.2,17.6c-0.1-0.1-0.1-0.1-0.1,0
		c0,0,0,0,0,0.1C21.1,17.7,21.2,17.7,21.2,17.6C21.2,17.7,21.2,17.6,21.2,17.6z"/>
	<path class="st4" d="M19.4,16.7C19.4,16.7,19.4,16.7,19.4,16.7C19.4,16.7,19.3,16.7,19.4,16.7c-0.1-0.1-0.1-0.1-0.1,0
		c0,0,0,0,0,0.1C19.2,16.8,19.3,16.8,19.4,16.7C19.3,16.8,19.4,16.8,19.4,16.7z"/>
	<path class="st4" d="M18.8,17.9C18.8,17.9,18.9,17.9,18.8,17.9C18.9,17.8,18.8,17.8,18.8,17.9c0-0.1-0.1-0.1-0.1-0.1c0,0,0,0,0,0.1
		C18.7,17.9,18.7,17.9,18.8,17.9C18.8,17.9,18.8,17.9,18.8,17.9z"/>
	<path class="st4" d="M20.2,17.2c0,0-0.1-0.1-0.2-0.1c-0.1,0-0.1,0.1-0.1,0.1c0,0.1,0,0.2,0.1,0.3c0,0,0.1,0.1,0.2,0.1
		c0.1,0,0.1-0.1,0.1-0.2C20.4,17.3,20.2,17.2,20.2,17.2z"/>
	<path class="st4" d="M78,12.1c0,0-0.1,0-0.2,0.1c0,0.1,0,0.2,0.1,0.2c0.1,0.1,0.2,0.1,0.3,0.1c0,0,0.2,0,0.2-0.1
		c0-0.1-0.1-0.2-0.1-0.2C78.2,12,78.1,12.1,78,12.1z"/>
	<path class="st4" d="M76.2,11.8c0,0-0.1,0-0.2,0.1c0,0.1,0.1,0.1,0.1,0.2c0.1,0.1,0.2,0.1,0.3,0.1c0,0,0.2,0,0.2-0.1
		c0-0.1-0.1-0.2-0.1-0.2C76.4,11.8,76.3,11.8,76.2,11.8z"/>
	<path class="st4" d="M77.2,13.2C77.2,13.2,77.2,13.2,77.2,13.2C77.1,13.2,77.1,13.2,77.2,13.2c-0.1,0-0.1,0-0.1,0.1c0,0,0,0,0,0.1
		C77.2,13.3,77.2,13.3,77.2,13.2C77.2,13.3,77.2,13.2,77.2,13.2z"/>
	<path class="st4" d="M75.9,13.2C75.9,13.1,75.9,13.1,75.9,13.2C75.9,13.1,75.8,13.1,75.9,13.2c-0.1,0-0.1,0-0.1,0.1c0,0,0,0,0,0.1
		C75.9,13.3,75.9,13.3,75.9,13.2C76,13.2,75.9,13.2,75.9,13.2z"/>
	<path class="st4" d="M36.8,9.5"/>
	<path class="st4" d="M35.9,12.5c-0.9,0.2-1.8,0.4-2.7,0.6c-1,0.2-1.9,0.4-2.8,0.7"/>
	<path class="st3" d="M53.2,9c-0.4-0.4-0.9-1-1.6-1.5c-0.7-0.6-1.4-0.9-2-1.2"/>
	<path class="st3" d="M56.3,9.1c-0.2-0.4-0.5-0.8-0.8-1.2c-0.5-0.7-1-1.2-1.6-1.7c-0.7-0.6-1.5-1.5-2.6-2.4"/>
	<path class="st3" d="M51.9,2.3c0.3,0.3,0.9,0.7,1.4,1.3c0.8,0.8,1.2,1.5,1.4,1.7c0.6,0.8,1.6,2,3.3,3.8"/>
	<path class="st3" d="M17.9,18.9c-0.4,0.1-0.9,0.2-1.5,0.3c-0.7,0.1-1.1,0.2-1.5,0.2c-0.4,0-1,0-1.8,0"/>
	<path class="st3" d="M18.1,19.5c-0.5,0.1-0.9,0.3-1.4,0.4c-0.9,0.3-1.3,0.4-1.7,0.5c-0.6,0.2-1.4,0.4-2.5,0.4"/>
	<path class="st3" d="M35.9,23.6c-0.1,0.2-0.3,0.5-0.6,0.9c-0.5,0.6-1,1-1.4,1.3c-0.4,0.3-1,0.7-1.7,1.1"/>
	<path class="st3" d="M33.7,23c-0.2,0.3-0.6,0.6-1,0.9c-0.7,0.5-1.4,0.7-1.8,0.9"/>
	<path class="st3" d="M32.4,22.7c-0.2,0.2-0.4,0.3-0.6,0.5c-0.8,0.5-1.5,0.8-2.1,0.9"/>
	<path class="st3" d="M31.4,22.3c-0.4,0.3-0.8,0.5-1.3,0.8c-0.4,0.2-0.8,0.4-1.1,0.5"/>
	<path class="st3" d="M53.5,27.4"/>
</g>
</svg>
