<?xml version="1.0" encoding="UTF-8"?>
<svg id="Ebene_1" data-name="Ebene 1" xmlns="http://www.w3.org/2000/svg" viewBox="0 0 96.4 34.27">
  <defs>
    <style>
      .cls-1 {
        stroke-width: 0px;
      }
    </style>
  </defs>
  <path class="cls-1" d="M89.96,14.53c-6.91-3.08-29.81-6.52-32.32-6.89C50.56-.72,47.91-.13,47.4.11c0,0,0,0,0,0,0,0-.01,0-.02,0-.48.25-1.11.71-1.78,1.28-.06.03-.12.08-.17.14,0,0,0,0,0,0-.41.36-.84.75-1.28,1.16-.05.03-.09.08-.13.13-.96.93-1.91,1.94-2.69,2.83,0,0,0,0,0,.01-.98,1.13-1.68,2.06-1.72,2.38-.05.36-.1.87,3.34,1.96-1.72.24-3.65.5-5.69.78-2.79.38-5.69.78-8.41,1.16-1.25-.69-5.87-3.07-7.74-1.97-1.49.88-2.31,1.9-2.2,2.73.02.17.12.42.36.64-1.24.2-2.14.37-2.52.48-1.01.29-3.93-1.3-6.51-2.7-3.36-1.83-6.54-3.55-8.15-2.94C.45,8.85-.07,14.7.54,17.74c.28,1.38,0,3.76-.23,5.86-.4,3.58-.57,5.63.51,6.17.29.15.64.22,1.03.22,1.64,0,4.12-1.16,7.11-2.56,3.06-1.43,6.44-3,9.24-3.44-1.72,1.32.56,6.3,1.47,8.1,0,0,0,0,0,0,.18.35.31.6.34.65.63,1.15,1.47,1.53,2.38,1.53s1.96-.41,2.86-.78c2.47-1.01,8.21-4.98,9.3-5.74.85.13,2.77.17,6.1.21.03,0,.06,0,.09,0-.33.43-.57.94-.68,1.45-.29,1.37.32,2.55,1.58,3.08.28.12.6.17.95.17,2.87,0,7.7-3.61,8.78-4.45,2.11.09,4.27.22,6.41.4,10.98.93,25.09-2.24,26.57-2.81.73-.28,1.24-.3,2.1-.33.97-.04,2.29-.09,4.61-.57,3.62-.75,4.79-2.46,4.69-3.43-.05-.52-.45-.87-.99-.87-.76,0-1,.24-1.25.55-.13.17-.26.34-.76.55-.59.26-1.57.07-2.34-.17,1.64-.96,3.72-1.38,4.72-1.47,1.02-.09,1.22-.65,1.26-.89.13-.76-.49-1.97-6.43-4.63ZM89.23,16.73c0,.68-.55,1.23-1.23,1.23s-1.23-.55-1.23-1.23.55-1.23,1.23-1.23,1.23.55,1.23,1.23ZM49.17,9.12c-.12.02-.24.04-.38.06l-6.28-3.26c.22-.25.45-.5.7-.76l6.28,3.91c-.11.02-.21.04-.32.05ZM51.06,8.8l-7.1-4.42c.18-.18.35-.36.53-.54l7.11,4.86c-.18.03-.36.06-.54.1ZM53.08,8.44l-7.82-5.35c.2-.19.4-.37.59-.54l7.44,5.85c-.07.01-.14.03-.21.04ZM54.67,8.14l-7.99-6.28c.31-.24.6-.45.87-.61l7.53,6.81c-.13.03-.27.05-.41.08ZM56.38,7.8s0,0,0,0l-7.14-6.46c1.78.93,4.66,3.61,7.14,6.46ZM40.75,8.05c.19-.28.56-.75,1.04-1.31l5.21,2.71c-.46.07-.97.14-1.51.22-1.9-.52-4.06-1.23-4.74-1.62ZM20.19,12.72c-.18-.05-.25-.11-.25-.13-.03-.22.43-.94,1.69-1.68.84-.5,3.29.33,5.37,1.31-2.07.29-3.99.57-5.6.82l-1.2-.32ZM19.79,29.86c3.58-1.25,6.95-3.6,7.83-4.24.81.24,1.6.49,2.33.72-1.51,1.27-5.32,4.15-9.53,4.9-.22-.45-.43-.91-.63-1.37ZM19.4,28.88c-.2-.53-.37-1.04-.5-1.52,2-.71,3.96-2.33,4.59-2.88.9.22,1.86.48,2.83.76-1.36.93-4.11,2.67-6.92,3.64ZM18.66,26.32c-.13-.79-.1-1.37.19-1.54.74-.43,1.7-.77,1.95-.85.42.06.88.14,1.38.25-.83.66-2.18,1.63-3.53,2.14ZM24.84,32.51c-2.26.93-3.2,1.03-3.91-.28,0,0,0,0,0-.01,4.97-1,9.2-4.59,10.22-5.51.32.1.63.2.91.29.44.14.82.26,1.16.37-1.91,1.31-6.37,4.32-8.37,5.13ZM47.64,28.08l-6.6,1.78c0-.08.02-.17.04-.24.18-.88.87-1.65,1.47-1.65h0c1.57.02,3.29.05,5.09.1ZM42.04,31.51c-.38-.16-.62-.38-.77-.61l7.25-1.96c-2.43,1.61-5.28,3.08-6.49,2.57ZM57.86,27.55c-2.21-.19-4.44-.32-6.61-.41,0,0,0,0,0,0-3.11-.13-6.08-.19-8.67-.23,0,0,0,0,0,0h0c-.67,0-1.32-.02-1.93-.02-3.08-.04-5.52-.07-6.1-.22-.36-.1-1.15-.35-2.18-.68-3.49-1.12-9.32-2.99-12.19-3.19-3.33-.24-7.76,1.84-11.67,3.67-3.03,1.42-6.17,2.89-7.21,2.36-.1-.06-.16-.25-.2-.52l8.27-3.29c.27-.11.4-.42.3-.69-.11-.27-.41-.4-.69-.3l-7.92,3.15c.01-.38.04-.81.07-1.24l7.77-2.44c.28-.09.43-.38.35-.66-.09-.28-.38-.44-.66-.35l-7.34,2.3c.04-.39.08-.76.12-1.08.02-.2.04-.4.07-.6l7.4-1.14c.29-.04.49-.32.44-.6-.04-.29-.31-.48-.6-.44l-7.13,1.1c.05-.49.09-.97.12-1.44,1.16-.09,4.58-.27,6.79-.38.29-.01.52-.26.5-.55-.01-.29-.27-.55-.55-.5-3.77.19-5.7.28-6.69.39,0-.48,0-.92-.04-1.34l6.72.51s.03,0,.04,0c.27,0,.51-.21.53-.49.02-.29-.2-.55-.49-.57l-6.96-.53c-.07-.44-.12-.9-.14-1.37l7.32,1.57s.07.01.11.01c.24,0,.46-.17.52-.42.06-.29-.12-.57-.41-.63l-7.57-1.62c0-.43.02-.86.05-1.28l7.64,2.05s.09.02.14.02c.23,0,.45-.16.51-.39.08-.28-.09-.57-.37-.65l-7.81-2.09c.07-.56.16-1.06.27-1.51l7.98,3.24c.07.03.13.04.2.04.21,0,.41-.12.49-.33.11-.27-.02-.58-.29-.69l-8.08-3.28c.12-.32.25-.53.37-.59.12-.04.26-.07.42-.07,1.42,0,4.4,1.62,6.84,2.95,3.16,1.72,5.88,3.2,7.31,2.78,1.53-.44,11.97-1.87,20.37-3.02,5.41-.74,10.08-1.38,11.95-1.69,4.39-.73,7.48-1.37,8.05-1.49,1.1.16,11.57,1.73,20.59,3.64-1.15.93-2.83,2.79-2.65,5.73.28,4.62,4.64,6.43,7.39,7.12-4.06,1.01-15.89,3.14-24.86,2.38ZM95.03,19c-1.38.13-4.21.74-6.09,2.25l-.53.43c-.65.52-1.38,1.12-1.53,1.16,0,0-.03-.04-.07-.16-.15-.44.81-1.75,1.76-2.65.21-.2.22-.54.02-.75-.2-.21-.54-.22-.75-.02-.59.56-2.47,2.47-2.04,3.75.15.44.39.71.73.81.67.19,1.34-.35,2.55-1.33l.28-.22c.75.3,2.59.93,3.82.39.74-.32,1-.65,1.17-.87.1-.12.11-.14.34-.14-.01.07-.05.18-.15.32-.2.31-1.05,1.34-3.7,1.89-2.24.46-3.51.51-4.44.55-.49.02-.92.04-1.34.11-.02,0-.03-.01-.05-.01-.08,0-8.28-.7-8.63-6.52-.2-3.32,2.43-5.03,3-5.37,2.93.64,5.64,1.32,7.73,1.99-.83.34-1.42,1.16-1.42,2.12,0,1.26,1.03,2.29,2.29,2.29s2.29-1.03,2.29-2.29c0-.35-.09-.69-.23-.99.86.39,1.57.74,2.18,1.06-.03,0-.05-.01-.08-.01-.74.02-.75.6-.75.67.01.37.33.77.77.77h.02c.41-.01.75-.36.75-.77,0-.12-.06-.24-.13-.35,1.95,1.07,2.4,1.64,2.51,1.84-.06.02-.15.04-.28.06Z"/>
  <path class="cls-1" d="M63.05,18.4c-.6,0-1.06.54-1.06,1.02,0,.41.33.83,1.06.83s1.06-.25,1.06-.73-.47-1.12-1.06-1.12ZM62.39,19.42h0,0Z"/>
  <path class="cls-1" d="M59.22,19.14c.12.05.25.07.38.07.42,0,.83-.24.99-.62.16-.38,0-.89-.67-1.16-.18-.07-.39-.15-.6-.15h-.01c-.3,0-.53.16-.64.43-.1.25-.09.59.03.89.11.26.29.45.53.55Z"/>
  <path class="cls-1" d="M61.2,21.26h0c.15-.38,0-.89-.67-1.16-.18-.07-.39-.15-.6-.15-.29.02-.54.15-.66.43-.19.47.01,1.21.56,1.43.12.05.25.07.38.07.14,0,.29-.03.43-.09.26-.11.46-.3.55-.53ZM60.84,21.11h0s0,0,0,0Z"/>
  <path class="cls-1" d="M58.23,21.33c-.65-.26-1.07-.17-1.25.28-.19.47.02,1.21.56,1.43.12.05.25.07.38.07.14,0,.29-.03.43-.09.26-.11.46-.3.55-.53.08-.19.08-.39,0-.58-.1-.24-.34-.45-.66-.58Z"/>
  <path class="cls-1" d="M54.92,22.02c-.18-.37-.66-.6-1.31-.27-.63.31-.84.69-.62,1.12.17.34.61.62,1.04.62.14,0,.27-.03.4-.09.25-.12.44-.34.53-.62.09-.26.08-.54-.03-.77t0,0ZM54.57,22.19h0Z"/>
  <path class="cls-1" d="M84.96,19.33c-.18-.37-.66-.6-1.31-.27-.63.31-.84.69-.62,1.12.17.34.61.62,1.04.62.14,0,.27-.03.4-.09.25-.12.44-.34.53-.62.09-.26.08-.54-.03-.77t0,0Z"/>
  <path class="cls-1" d="M80.29,16.11c-.7.02-1.05.27-1.04.75.01.5.49,1.09,1.06,1.09h.02c.6-.01,1.04-.56,1.03-1.04h0c-.01-.41-.36-.8-1.08-.8Z"/>
  <path class="cls-1" d="M79.01,18.74c-.6.01-.62.44-.62.53,0,.17.08.34.22.47.12.11.27.17.42.17h.01c.34,0,.62-.3.62-.63h0c0-.28-.23-.53-.65-.54Z"/>
  <path class="cls-1" d="M78.59,17.63c0-.27-.22-.55-.65-.54-.6.01-.62.44-.62.53,0,.17.08.34.22.47.12.11.27.18.42.18h.01c.34,0,.62-.3.62-.63Z"/>
  <path class="cls-1" d="M83.4,17.46c.27,0,.53-.11.73-.3.2-.19.32-.45.32-.7,0-.28-.13-.52-.37-.67-.17-.11-.4-.17-.66-.18-.71-.02-1.06.22-1.07.71,0,.28.13.59.35.82.2.2.44.32.69.32h.02Z"/>
  <path class="cls-1" d="M56.94,20.05s0,0,0,0c-.18-.37-.66-.6-1.31-.27-.63.31-.84.69-.62,1.12.17.34.61.62,1.04.62.14,0,.27-.03.4-.09.25-.12.44-.34.53-.62.09-.26.08-.54-.03-.77Z"/>
  <path class="cls-1" d="M55.03,19.24c.14,0,.27-.03.4-.09.54-.27.71-.95.49-1.38h0c-.18-.37-.66-.6-1.31-.27-.63.31-.84.69-.62,1.12.17.34.61.62,1.05.62ZM55.57,17.94h0s0,0,0,0Z"/>
  <path class="cls-1" d="M71.84,15.31c-.13.25-.16.53-.07.75.08.2.28.5.83.5.14,0,.29-.02.47-.06.37-.09.99-.23.93-.86-.03-.27-.2-.55-.47-.74-.28-.2-.6-.27-.91-.19-.34.08-.62.3-.78.6Z"/>
  <path class="cls-1" d="M65.19,18.1c.54-.13.57-.45.53-.63-.03-.16-.14-.31-.29-.41-.16-.1-.34-.14-.51-.1-.18.04-.34.16-.44.32-.08.14-.11.31-.07.46.06.21.25.38.56.38.07,0,.14,0,.22-.03ZM65.03,17.35s0,0,0,0c0,0,0,0,0,0,0,0,0,0,0,0Z"/>
  <path class="cls-1" d="M68.79,16.59c.12.04.25.06.37.06.43,0,.84-.22,1.02-.56,0,0,0,0,0,0,.09-.19.1-.4.02-.59-.12-.28-.42-.52-.83-.65-.48-.15-.83-.16-1.08-.01-.16.09-.27.25-.31.43-.1.47.23,1.15.81,1.33Z"/>
  <path class="cls-1" d="M67.82,16.97c-.16-.05-.37-.1-.57,0-.09.05-.21.19-.24.3-.08.29.09.7.44.81.07.02.14.03.21.03.26,0,.51-.15.61-.39.04-.1.03-.31-.01-.41-.08-.16-.23-.29-.45-.35Z"/>
  <path class="cls-1" d="M70.59,14.06c.08,0,.15,0,.22,0,.84-.04,1.87-.22,2.03-.81h0c.05-.18,0-.36-.12-.52-.29-.35-1.05-.56-1.91-.52-.73.03-1.63.2-1.95.6-.11.14-.16.31-.13.47.12.63,1.14.79,1.86.79Z"/>
  <path class="cls-1" d="M65.54,15.89s.05,0,.07,0c.44-.02.93-.18.97-.58.01-.12-.04-.28-.12-.37-.16-.17-.45-.25-.87-.23-.46.02-.71.09-.86.25-.07.08-.13.23-.12.33.02.39.48.59.93.59Z"/>
  <path class="cls-1" d="M65.39,13.07c-.03-.27-.2-.55-.47-.74-.28-.2-.6-.27-.91-.19-.34.08-.62.3-.79.6-.13.25-.16.53-.07.75.08.2.28.5.82.5.14,0,.29-.02.48-.06.37-.09.99-.23.93-.86Z"/>
  <path class="cls-1" d="M66.03,12.15c-.16.09-.27.25-.31.43-.1.47.23,1.15.81,1.33.12.04.25.06.37.06.43,0,.85-.22,1.02-.56.09-.19.1-.4.02-.59-.12-.28-.42-.52-.83-.65-.48-.15-.83-.16-1.08-.01Z"/>
  <path class="cls-1" d="M64.56,12.09c.08,0,.15,0,.22,0,.84-.04,1.87-.22,2.03-.81.05-.18,0-.36-.12-.51-.34-.43-1.24-.55-1.91-.53-.73.03-1.63.2-1.95.6-.11.14-.16.31-.13.47.12.63,1.14.79,1.86.79Z"/>
  <path class="cls-1" d="M62.31,16.89c0-.51-.47-1.12-1.06-1.12s-1.06.54-1.06,1.02c0,.41.33.83,1.06.83s1.06-.25,1.06-.73ZM60.6,16.79h0,0Z"/>
  <path class="cls-1" d="M64.57,16.69c.04-.41-.26-.85-.98-.91-.32-.03-.65-.03-.88.17-.09.08-.21.22-.23.46-.04.5.37,1.15.96,1.2.03,0,.06,0,.09,0,.56,0,1.01-.47,1.05-.93,0,0,0,0,0,0Z"/>
  <path class="cls-1" d="M60.42,14.61c-.05.57.62,1.18,1.38,1.24.06,0,.12,0,.17,0,.42,0,.82-.13,1.09-.35.18-.15.29-.34.31-.54.02-.17-.04-.34-.16-.48-.27-.32-.83-.43-1.25-.47-.64-.06-1.06-.04-1.33.18-.13.11-.2.25-.22.42Z"/>
  <path class="cls-1" d="M56.24,15.73c0,.41.33.83,1.06.83s1.06-.25,1.06-.73-.47-1.12-1.06-1.12-1.06.54-1.06,1.02ZM56.63,15.73h0,0Z"/>
  <path class="cls-1" d="M59.47,16.55s.06,0,.09,0c.56,0,1.01-.47,1.05-.93,0,0,0,0,0,0,.04-.41-.25-.85-.98-.91-.32-.03-.65-.03-.88.17-.09.08-.21.22-.23.46-.04.5.37,1.15.96,1.2Z"/>
  <path class="cls-1" d="M59.42,13.9c.01-.17-.04-.34-.16-.48-.27-.32-.83-.43-1.25-.47-.09,0-.17-.01-.25-.02l.1-.05c.32-.15.8-.37.7-.92-.05-.26-.26-.51-.56-.66-.36-.18-.77-.18-1.12,0-.39.19-.67.55-.75.95-.05.29,0,.55.17.73h0c.1.11.22.17.34.2-.09.1-.15.22-.17.35-.05.57.62,1.18,1.39,1.24.06,0,.11,0,.17,0,.42,0,.82-.13,1.09-.35.18-.15.29-.34.31-.54Z"/>
  <path class="cls-1" d="M53.23,17.39c.02-.17-.04-.34-.16-.48-.27-.32-.83-.43-1.25-.47-.64-.06-1.06-.04-1.33.18-.13.11-.2.25-.22.42-.02.21.07.45.25.66.27.33.7.54,1.14.58.06,0,.11,0,.17,0,.42,0,.82-.13,1.09-.35.18-.15.29-.34.31-.54Z"/>
  <path class="cls-1" d="M51.29,13.7c-.39.19-.67.55-.75.95-.05.29,0,.55.17.73.16.18.35.24.55.24.32,0,.64-.16.85-.26l.17-.08c.32-.15.8-.37.7-.92-.05-.26-.26-.51-.56-.66-.36-.18-.77-.18-1.12,0Z"/>
  <path class="cls-1" d="M55.7,15.31h0c.16-.14.24-.34.22-.57-.03-.36-.33-.75-.78-1.01-.29-.17-.83-.43-1.26-.26-.19.07-.32.21-.38.39-.16.48.16,1.15.68,1.44.24.13.55.22.84.22.26,0,.5-.07.69-.22Z"/>
  <path class="cls-1" d="M50.34,13.71c.37,0,.86-.09,1.5-.2l.41-.07c.31-.05.62-.09.89-.13.9-.12,1.44-.19,1.62-.59.08-.18.05-.38-.08-.55-.32-.42-1.37-.75-2.58-.58-1.22.18-2.22.77-2.47,1.25-.13.24-.08.43-.03.52.12.26.37.35.75.35Z"/>
  <path class="cls-1" d="M45.23,15.44l.17-.08c.32-.15.8-.37.7-.92-.05-.26-.26-.51-.56-.66-.36-.18-.77-.18-1.12,0-.39.19-.67.55-.75.96-.05.28,0,.55.17.73.16.18.35.24.55.24.31,0,.64-.16.85-.26Z"/>
  <path class="cls-1" d="M49.05,14.83c-.03-.36-.33-.75-.78-1.01-.29-.17-.83-.43-1.26-.26-.19.07-.32.21-.38.4-.16.48.16,1.15.68,1.44.24.13.55.22.84.22.26,0,.5-.07.69-.22.16-.14.24-.34.22-.57Z"/>
  <path class="cls-1" d="M43.47,13.8c.37,0,.86-.09,1.5-.2l.41-.07c.31-.05.62-.09.89-.13.9-.12,1.44-.19,1.62-.59.08-.18.05-.38-.08-.55-.32-.42-1.37-.75-2.58-.58-1.22.18-2.22.77-2.47,1.25-.13.24-.07.43-.03.52.12.26.37.35.75.35Z"/>
  <path class="cls-1" d="M45.78,20.5c-.6,0-1.06.54-1.06,1.02,0,.41.33.83,1.06.83s1.06-.25,1.06-.73-.47-1.12-1.06-1.12ZM45.13,21.52h0,0Z"/>
  <path class="cls-1" d="M43.32,20.7h0c.16-.38,0-.89-.67-1.17-.18-.07-.39-.15-.6-.15-.27.02-.54.15-.66.43-.19.47.01,1.21.56,1.43.13.05.25.07.38.07.44,0,.84-.28.98-.62ZM42.95,20.55h0s0,0,0,0Z"/>
  <path class="cls-1" d="M43.28,22.2c-.18-.07-.39-.15-.6-.15-.31,0-.54.15-.66.43-.19.47.01,1.21.56,1.43.12.05.25.08.38.08.14,0,.29-.03.43-.09.26-.11.46-.3.55-.53.08-.19.08-.39,0-.58-.1-.25-.33-.45-.66-.58Z"/>
  <path class="cls-1" d="M40.97,23.43c-.18-.07-.39-.15-.6-.15-.29,0-.54.15-.66.43-.19.47.01,1.21.56,1.43.12.05.25.08.38.08.14,0,.29-.03.43-.09.26-.11.46-.3.55-.53.08-.19.08-.39,0-.58-.1-.24-.34-.45-.66-.58Z"/>
  <path class="cls-1" d="M37.02,23.69c-.21-.02-.44.04-.67.15-.63.31-.84.69-.62,1.12.11.21.32.41.58.52.16.07.31.1.46.1.14,0,.28-.03.4-.09.25-.12.43-.34.53-.61.09-.26.08-.54-.03-.77-.12-.25-.36-.4-.64-.42ZM37.3,24.29h0,0Z"/>
  <path class="cls-1" d="M39.68,22.15c-.12-.25-.36-.4-.64-.42-.21-.02-.44.04-.67.15-.63.31-.84.69-.62,1.12.11.21.32.41.58.52.16.07.31.1.46.1.14,0,.28-.03.4-.09.25-.12.43-.34.53-.61.09-.26.08-.54-.03-.77Z"/>
  <path class="cls-1" d="M37.35,19.59c-.29.14-.57.31-.67.6-.04.12-.07.3.04.52.11.21.32.41.57.52.16.07.31.1.46.1.14,0,.28-.03.4-.09.54-.27.71-.95.49-1.38t0,0c-.18-.37-.66-.59-1.31-.27Z"/>
  <path class="cls-1" d="M49.82,23.86c-.25-.09-.56-.05-.88.11-.63.31-.84.69-.62,1.12.17.35.61.62,1.05.62.14,0,.27-.03.4-.09.25-.12.44-.34.53-.62.09-.26.08-.54-.03-.77-.09-.19-.24-.32-.44-.38Z"/>
  <path class="cls-1" d="M42.94,18.89c0,.41.33.83,1.06.83s1.06-.25,1.06-.73-.47-1.12-1.06-1.12-1.06.54-1.06,1.02ZM43.33,18.89h0,0Z"/>
  <path class="cls-1" d="M46.33,17.87c-.69-.06-1.07.15-1.11.64-.02.27.09.6.29.84.18.22.42.34.66.37.03,0,.06,0,.09,0,.25,0,.48-.09.68-.26.21-.18.35-.42.37-.67.04-.41-.25-.85-.98-.91ZM46.91,18.75h0Z"/>
  <path class="cls-1" d="M46.12,17.06h0c.02-.25-.07-.84-1.41-.95-.28-.02-.61-.05-.86,0-.57.08-.67.45-.68.6-.02.28.13.58.41.83.27.24.62.38.97.41.06,0,.12,0,.18,0,.73,0,1.35-.39,1.39-.89Z"/>
  <path class="cls-1" d="M38.98,17.82c0,.41.33.83,1.06.83s1.06-.25,1.06-.73-.47-1.12-1.06-1.12-1.06.54-1.06,1.02ZM39.37,17.82h0,0Z"/>
  <path class="cls-1" d="M41.25,17.44c-.02.27.09.6.29.84.18.22.42.34.66.37.03,0,.06,0,.09,0,.24,0,.48-.09.68-.25.21-.18.35-.42.37-.67.02-.28-.1-.53-.33-.7-.17-.12-.39-.2-.65-.22-.7-.06-1.07.15-1.11.63ZM42.95,17.69h0,0Z"/>
  <path class="cls-1" d="M39.2,15.64c-.02.28.13.58.41.83.27.24.62.38.97.41.06,0,.12,0,.18,0,.73,0,1.35-.39,1.39-.89.01-.15-.01-.51-.52-.75-.29-.13-.64-.19-.89-.21-.52-.04-1.48-.13-1.54.6Z"/>
  <path class="cls-1" d="M50.01,18.39c-.52-.04-1.48-.13-1.54.6-.02.21.07.45.25.66.27.33.7.54,1.14.58.06,0,.12,0,.17,0,.42,0,.82-.13,1.09-.35.18-.15.29-.34.31-.54.02-.25-.07-.83-1.41-.95Z"/>
  <path class="cls-1" d="M40.02,14.9c.06,0,.12,0,.17,0,.42,0,.82-.13,1.09-.36.18-.15.29-.34.31-.54.01-.15-.01-.51-.52-.74-.29-.13-.64-.19-.89-.21-.64-.06-1.06-.04-1.33.18-.13.11-.2.25-.22.42-.02.28.13.58.41.83.27.24.62.38.97.41Z"/>
  <path class="cls-1" d="M34.57,20.38c.29,0,.58-.06.82-.18.34-.17.55-.43.57-.71.02-.17-.04-.34-.16-.48-.27-.32-.83-.43-1.25-.47-.28-.02-.61-.04-.87,0-.57.08-.67.45-.68.6-.02.21.07.45.25.66.27.32.7.54,1.14.58.06,0,.12,0,.18,0Z"/>
  <path class="cls-1" d="M34.03,15.8c-.39.19-.67.55-.75.95-.05.29,0,.55.17.73h0c.16.18.35.24.55.24.31,0,.64-.16.85-.26l.17-.08c.32-.15.8-.37.7-.92-.05-.26-.26-.51-.56-.66-.36-.18-.77-.18-1.12,0Z"/>
  <path class="cls-1" d="M36.62,15.58c-.19.07-.32.21-.38.4-.16.48.16,1.15.68,1.44.24.13.55.22.84.22.26,0,.5-.07.69-.22.16-.14.24-.34.22-.57-.03-.36-.33-.75-.78-1.01-.29-.17-.83-.42-1.26-.26Z"/>
  <path class="cls-1" d="M34.58,15.61l.41-.07c.31-.05.62-.09.89-.13.9-.12,1.44-.19,1.61-.59.08-.18.05-.38-.08-.55-.32-.42-1.37-.75-2.58-.58-1.22.18-2.22.77-2.47,1.25-.13.24-.07.43-.03.52.12.26.37.35.75.35s.86-.09,1.49-.2Z"/>
  <path class="cls-1" d="M59.46,11.08c-.19.07-.32.21-.38.4-.16.48.16,1.15.68,1.44.24.13.55.22.84.22.26,0,.5-.07.69-.22.16-.14.24-.34.22-.57-.03-.36-.33-.75-.78-1.01-.29-.17-.83-.42-1.26-.26Z"/>
  <path class="cls-1" d="M55.93,11.32c.37,0,.86-.09,1.5-.2l.41-.07c.31-.05.62-.09.89-.13.9-.12,1.44-.19,1.62-.59h0c.08-.18.05-.38-.08-.56-.32-.42-1.37-.75-2.58-.58-1.22.18-2.22.77-2.47,1.25-.13.24-.08.43-.03.52.12.26.37.35.75.35Z"/>
  <path class="cls-1" d="M28.84,15.88c-.36-.18-.77-.18-1.12,0-.39.19-.67.55-.75.95-.05.29,0,.55.17.73.16.18.35.24.55.24.32,0,.64-.16.85-.26l.17-.08c.32-.15.8-.37.7-.92-.05-.26-.26-.51-.56-.66Z"/>
  <path class="cls-1" d="M31.57,15.92c-.29-.17-.83-.43-1.26-.26-.19.07-.32.21-.38.4-.16.48.16,1.15.68,1.44.24.13.55.22.84.22.26,0,.5-.07.69-.22,0,0,0,0,0,0,.16-.14.24-.34.22-.57-.03-.36-.33-.75-.78-1.01Z"/>
  <path class="cls-1" d="M31.19,14.9c.08-.18.05-.38-.08-.55-.32-.42-1.37-.75-2.58-.58-1.22.18-2.22.77-2.47,1.25-.13.24-.07.43-.03.52.12.26.37.35.75.35s.86-.09,1.5-.2l.41-.07c.31-.05.62-.09.89-.13.9-.12,1.44-.19,1.62-.59Z"/>
  <path class="cls-1" d="M13.46,16.15c-.19-.08-.41-.07-.59.02-.19.1-.34.27-.4.47-.05.16-.03.32.05.45.04.07.18.24.45.24.11,0,.25-.03.42-.11.15-.07.6-.29.43-.73-.06-.15-.19-.28-.36-.34Z"/>
  <path class="cls-1" d="M18.91,18.48c-.19-.08-.41-.07-.59.02-.19.1-.34.27-.4.47-.05.16-.03.32.05.45.04.07.18.24.45.24.11,0,.25-.03.42-.11.15-.07.6-.29.43-.73-.06-.15-.19-.27-.36-.34Z"/>
  <path class="cls-1" d="M24.36,20.8c-.19-.08-.41-.07-.59.02-.19.1-.34.27-.4.47-.05.16-.03.32.05.45h0c.04.07.18.24.45.24.11,0,.25-.03.42-.11.15-.07.59-.29.43-.73-.06-.15-.19-.28-.36-.34Z"/>
  <path class="cls-1" d="M61.57,24.38c-.19-.08-.41-.07-.6.02-.19.1-.34.27-.4.47-.05.16-.03.32.05.45.04.07.18.24.45.24.11,0,.25-.03.42-.11.15-.07.6-.29.43-.73-.06-.15-.19-.28-.36-.34Z"/>
  <path class="cls-1" d="M28.91,19.89c-.19-.08-.41-.07-.59.02-.19.1-.34.27-.4.47-.05.16-.03.32.05.45h0c.04.07.18.24.44.24.11,0,.25-.03.42-.11.15-.07.6-.29.43-.73-.06-.15-.19-.28-.36-.34Z"/>
  <path class="cls-1" d="M35.04,22.28c-.17-.09-.39-.2-.61-.13-.1.03-.24.14-.29.24-.16.3-.01.72.31.9.13.07.27.11.4.11.2,0,.38-.08.5-.22,0,0,0,0,0,0,.07-.09.12-.29.1-.4-.04-.19-.18-.37-.4-.49Z"/>
  <path class="cls-1" d="M24.11,15.58c.02-.12-.04-.29-.13-.38-.26-.26-.87-.2-1.12-.16-.55.08-.9.23-1.04.43-.06.09-.1.24-.08.34.06.35.42.44.78.44.17,0,.34-.02.47-.04.93-.15,1.09-.39,1.12-.63Z"/>
  <path class="cls-1" d="M19.55,15.91c-.55.08-.9.23-1.04.43-.06.09-.1.24-.08.34.06.35.42.44.78.44.17,0,.34-.02.47-.04.93-.15,1.09-.39,1.12-.63h0c.02-.13-.04-.29-.13-.38-.26-.26-.87-.2-1.12-.16Z"/>
  <path class="cls-1" d="M77.02,22.69c-.38-.16-.91-.4-1.5-.66-1.47-.65-3.3-1.46-4.54-1.95-3.01-1.17-5.03-1.73-5.85-.87-.41.43-.41,1.08-.03,1.95,0,0,0,.01,0,.02,0,0,0,0,0,0,.3.67.59,1.22.88,1.69.03.07.07.13.12.18.84,1.28,1.75,1.87,3.24,2.23.68.17,2.11.27,3.57.27.74,0,1.49-.03,2.16-.09,0,0,.01,0,.02,0,0,0,.01,0,.02,0,1.04-.09,1.87-.26,2.14-.53.2-.2.35-.43.44-.7.22-.61-.08-1.29-.67-1.55ZM75.16,24.4c-.86-.3-6.16-2.15-8.38-2.27-.1-.18-.21-.36-.32-.57,2.66.34,6.89,1.99,8.88,2.82-.06,0-.12.01-.18.02ZM65.89,19.94c.06-.06.18-.11.43-.11.56,0,1.75.25,4.26,1.24,1.22.47,3.04,1.28,4.5,1.93.6.27,1.13.5,1.51.66.06.03.09.09.09.15-1.17-.51-7.41-3.16-10.74-3.35-.11-.33-.09-.49-.06-.51ZM67.65,23.3c1.23.22,2.94.71,4.46,1.19-.99-.02-1.91-.09-2.51-.24-.82-.2-1.41-.44-1.95-.95Z"/>
  <path class="cls-1" d="M87.81,17.36c.81.24,1.18-1.02.37-1.26s-1.18,1.02-.37,1.26Z"/>
</svg>