<?xml version="1.0" encoding="UTF-8"?>
<svg id="Ebene_1" data-name="Ebene 1" xmlns="http://www.w3.org/2000/svg" viewBox="0 0 98 27.84">
  <defs>
    <style>
      .cls-1 {
        stroke-width: 0px;
      }
    </style>
  </defs>
  <path class="cls-1" d="M97.31,12.66c-.26-.1-.53-.1-.77,0-.02-.1-.04-.19-.07-.27,0,0-.14-.61-1.09-.71-.79-.08-3.51.1-4.99-.88l-.69-.46c-2.81-1.89-5.09-3.34-6.77-3.21-.75.04-2.46-.43-4.29-.93-3.14-.86-7.44-2.04-11.47-1.99-7.19.11-17.95.92-24.6,1.5-1.05-.46-5.42-2.47-8.52-5.23l-.2-.18-.26-.06c-4.69-1.16-12.44,2.26-14.15,4.01-.61.62-.61,1.18-.52,1.53.23.81,1.04,1.36,2.08,2.06.44.29,1.03.7,1.49,1.1-2,.33-3.73.55-4.83.55-3.1,0-10.7-5.34-13.37-7.39l-1.03-.79-.6,1.15c-.06.12-1.45,2.86,0,5.75.63,1.26,1.37,2.21,1.97,2.97.27.35.63.8.78,1.08-.17.14-.42.32-.64.48C3.26,13.81.44,15.84.13,19.97l-.13,1.72,1.61-.64c3.31-1.31,12.22-4.38,14.49-4.38.88,0,2.99.5,5.37,1.15-1.1.92-2.21,2.21-2.15,3.65.06,1.28.96,2.32,2.68,3.08,1.05.47,2.1.66,3.12.66,3.96,0,7.4-2.92,8.57-4.04,2.27.32,7.64.47,13.89.51-.35.18-.71.36-1.06.53-1,.49-1.93.91-2.64,1.46-.74.57-1.33,1.67-.96,2.72.26.74,1.05,1.45,3.28,1.45h.15c3.62,0,5.24-1.19,7.3-3.11,1.01-.94,2.65-2.41,3.38-3.06,4.29-.04,8.5-.12,12.01-.22-.61.29-1.2.55-1.71.76-.82.35-1.26.54-1.55.75-.71.52-.76,1.13-.72,1.45.11,1.04,1.21,1.69,3.47,2.68l.24.11.26-.02c3.44-.22,5.95-4.32,6.85-6.03.72-.05,1.3-.1,1.66-.15,2.22-.33,4.81-.94,7.31-1.54,1.98-.47,3.85-.92,5.26-1.15,3.16-.51,6.94-2.06,7.79-4.24.22-.55-.06-1.18-.62-1.4ZM22.21,6.04c-.26-.18-.6-.4-.86-.6,1.69-1.25,7.69-3.92,11.47-3.16,1.79,1.55,3.88,2.85,5.62,3.8-.52.05-.94.09-1.25.13-.12.01-.27.03-.41.05l-4.71-3.37c-.49-.35-1.16-.24-1.51.25-.35.49-.24,1.16.25,1.51l2.98,2.13c-.42.08-.87.17-1.33.26l-3.55-2.97c-.46-.38-1.14-.32-1.52.13-.38.46-.32,1.14.13,1.52l2.21,1.86c-.27.05-.53.11-.8.16l-2.63-2.11c-.47-.37-1.15-.3-1.52.17-.37.47-.3,1.15.17,1.52l1.2.97c-.41.08-.81.15-1.21.23-.59-1.02-1.75-1.8-2.73-2.46ZM22.89,22.57c-.87-.38-1.38-.82-1.39-1.19-.03-.79,1.42-2.05,2.66-2.81.19.05.38.11.56.16-.36.26-.65.46-.75.53-.47.24-.7.79-.54,1.3.15.46.57.74,1.03.74.11,0,.23-.02.34-.05.18-.06.31-.11,2.56-1.75.14.04.28.08.42.12-.28.17-.5.3-.61.35-.42.15-.73.55-.73,1.02,0,.6.48,1.08,1.08,1.08.35,0,.45,0,3.07-1.65.17.05.33.09.49.14-1.83,1.44-5.11,3.38-8.2,2.02ZM52.19,23.16c-1.79,1.67-2.95,2.51-5.86,2.51h-.12c-.88,0-1.2-.03-1.22,0,.01-.1.13-.14.23-.23.53-.41,1.37-.83,2.26-1.26,1.36-.67,2.85-1.43,3.98-2.5.77,0,1.55,0,2.32,0-.57.52-1.15,1.06-1.6,1.48ZM69.15,24.99c-.6-.27-1.02-.48-1.32-.64.12-.05.25-.11.37-.16,1.48-.63,3.67-1.57,5.11-2.9h0c-1.01,1.56-2.56,3.43-4.16,3.7ZM85.34,15.67c.3.51.96.69,1.48.39,0,0,.77-.42,1.75-.42.18-.02.5.03.86.06.59.05,1.35.1,2.06.11-.54.15-1.11.28-1.69.37-1.48.24-3.39.7-5.42,1.18-2.46.59-4.99,1.19-7.12,1.5-.07.01-.17.02-.26.03-4.06-3.77-2.62-7.3-2.54-7.47.24-.54,0-1.18-.54-1.43-.54-.25-1.18,0-1.43.53-.09.19-1.84,4.21,1.73,8.58-.43.02-.89.08-1.38.08h-.02c-5.18,0-13.69.35-21.51.36-.14-.03-.28-.04-.42,0-8.11,0-15.39-.16-17.3-.58-1.24-.27-3.53-.94-5.97-1.65-1.17-.34-2.25-.65-3.27-.94,0,0-.02,0-.03,0-3.93-1.12-6.82-1.85-8.19-1.85-2.54,0-9.81,2.5-13.44,3.83.72-1.96,2.27-3.08,3.37-3.87.91-.65,1.62-1.16,1.62-2.04s-.58-1.66-1.32-2.6c-.56-.72-1.2-1.54-1.74-2.6-.45-.9-.48-1.8-.38-2.49,2.91,2.13,9.82,6.91,13.44,6.91,2.71,0,8.39-1.13,13.39-2.13,2.81-.56,5.23-1.04,6.38-1.17,3.35-.36,19.94-1.83,29.77-1.99,3.74-.04,7.68,1.03,10.86,1.91,2.28.63,3.92,1.08,5.02,1,.02,0,.04,0,.07,0,1.11,0,3.75,1.78,5.34,2.85l.7.47c.79.53,1.75.84,2.71,1.02-.74.05-1.62.07-2.29.06-2.34-.03-3.76.58-3.88.66-.52.3-.69.81-.39,1.33ZM83.49,10.36c-.91-.12-1.73.41-1.84,1.19s.55,1.51,1.46,1.64c.91.12,1.73-.41,1.84-1.19s-.55-1.51-1.46-1.64ZM66.12,7.5c-.79,0-1.44.6-1.44,1.35s.64,1.35,1.44,1.35,1.44-.6,1.44-1.35-.64-1.35-1.44-1.35ZM59.25,11.94c-.76,0-1.38.59-1.38,1.32s.62,1.32,1.38,1.32,1.38-.59,1.38-1.32-.62-1.32-1.38-1.32ZM63.87,11.94c-.51,0-.92.34-.92.77s.4.77.92.77.92-.34.92-.77-.4-.77-.92-.77ZM41.15,11.94c-.51,0-.92.34-.92.77s.4.77.92.77.92-.34.92-.77-.4-.77-.92-.77ZM60.1,8.36c-.49,0-.89.41-.89.91s.4.91.89.91.89-.41.89-.91-.4-.91-.89-.91ZM54.34,8.59c-.6,0-1.09.47-1.09,1.06s.49,1.06,1.09,1.06,1.09-.47,1.09-1.06-.49-1.06-1.09-1.06ZM51.78,11.24c-.65,0-1.18.5-1.18,1.12s.53,1.12,1.18,1.12,1.18-.5,1.18-1.12-.53-1.12-1.18-1.12ZM49.39,8.59c-.53,0-.97.42-.97.94s.43.94.97.94.97-.42.97-.94-.43-.94-.97-.94ZM47.04,11.94c-.63,0-1.12.41-1.12.93s.49.93,1.12.93,1.12-.41,1.12-.93-.49-.93-1.12-.93ZM44.35,8.99c-.57,0-.98.31-.98.74s.4.74.98.74.98-.31.98-.74c0-.43-.41-.74-.98-.74ZM39.08,9.19c-.5,0-.89.33-.89.76s.39.76.89.76.89-.33.89-.76c0-.43-.39-.76-.89-.76ZM37.29,11.24c-.46,0-.83.37-.83.83s.37.83.83.83.83-.37.83-.83-.37-.83-.83-.83ZM34.89,11.06c0-.42-.35-.63-1.03-.63s-1.03.21-1.03.63.35.63,1.03.63,1.03-.21,1.03-.63ZM34.11,13.36c-.69,0-.83.32-.83.58s.14.58.83.58.83-.32.83-.58-.14-.58-.83-.58ZM43.85,14.13c-.79,0-.83.51-.83.62s.04.61.83.61.83-.51.83-.61-.04-.62-.83-.62ZM53.59,13.69c-.57,0-.83.32-.83.64s.26.64.83.64.83-.32.83-.64c0-.32-.26-.64-.83-.64ZM28.6,11.07c-.51,0-.92.34-.92.77s.4.77.92.77.92-.34.92-.77-.4-.77-.92-.77ZM79.62,15.77c-1.75-.97-1.45-2.86-1.41-3.08.12-.58-.26-1.15-.84-1.27-.59-.12-1.16.25-1.28.84-.26,1.25-.07,3.98,2.47,5.4.17.09.35.14.53.14.38,0,.75-.2.95-.55.29-.52.1-1.18-.42-1.47ZM13.61,13.37c-.04-.23-.16-.46-.33-.62l-3.79-3.39c-.44-.4-1.13-.36-1.53.08-.4.44-.36,1.13.08,1.53l2.35,2.11-2.35.7c-.57.17-.9.78-.72,1.35.14.47.57.77,1.04.77.1,0,.21-.02.31-.05l4.19-1.26c.36-.11.66-.45.73-.81.03-.13.03-.27,0-.41Z"/>
</svg>