<?xml version="1.0" encoding="utf-8"?>
<!-- Generator: Adobe Illustrator 28.2.0, SVG Export Plug-In . SVG Version: 6.00 Build 0)  -->
<svg version="1.1" id="Ebene_1" xmlns="http://www.w3.org/2000/svg" xmlns:xlink="http://www.w3.org/1999/xlink" x="0px" y="0px"
	 viewBox="0 0 180.3 253.4" style="enable-background:new 0 0 180.3 253.4;" xml:space="preserve">
<g>
	<path d="M33.9,41c0.3-3.7,1.6-7.4,3.6-10.7c3.5-5.6,8.9-9.4,15.2-10.9c1.8-0.4,3.7-0.6,5.6-0.6c11.4,0,21.2,7.8,23.8,18.9
		c0.3,1.1,0.4,2.2,0.5,3.3c12.3-3.3,20.4-8.9,20.4-15.4c0-8.5-14.1-15.6-33.2-17.7c-0.3-4.4-5.4-8-11.6-8C52.1,0,47,3.5,46.7,8
		c-19.1,2.1-33.2,9.2-33.2,17.7C13.5,32.1,21.6,37.8,33.9,41z"/>
	<path d="M149.5,68.1c-0.1-0.2-0.2-0.3-0.4-0.5c-0.8,2.2-1.6,4.2-2.3,6.1c-1.3,3.4-2.5,6.5-2.6,7.8c1.1-0.7,2.2-1.4,3.4-2.2
		C151.1,76.7,152,71.7,149.5,68.1z"/>
	<path d="M123.9,73.4c-7.1,2.4-14,3.2-20.2,3.2c-2.1,0-4.2-0.1-6.1-0.3L85.4,87.1L82.1,90l-32.7,28.8L32.2,134
		c0.3,1.6-0.1,3.3-0.9,4.6v10v89c0,6.8,5.5,12.4,12.4,12.4c6.8,0,12.4-5.5,12.4-12.4v-81.3h4.8v81.3c0,6.8,5.5,12.4,12.4,12.4
		c6.8,0,12.4-5.5,12.4-12.4V129.7c0-0.6-0.1-1.2-0.1-1.7V90.7c4.7,1,11,1.9,18.3,1.9c0,0,0.1,0,0.1,0c5.5,0,11.5-0.5,17.8-2
		c1-5.6,1.9-11.1,2.4-16C124,74.3,124,73.8,123.9,73.4z"/>
	<path d="M53.2,21.4C43.4,23.7,36.7,32,35.9,41.5c-0.2,2.3,0,4.6,0.5,6.9c2.8,12.1,14.9,19.6,27,16.8c11-2.6,18.2-12.8,17.3-23.7
		c-0.1-1.1-0.3-2.2-0.5-3.3C77.4,26.1,65.3,18.6,53.2,21.4z"/>
	<path d="M118.6,37.3c-0.3,4.2-0.4,7.9-0.1,11.2l3.8-3.2C121,42.5,119.8,39.7,118.6,37.3z"/>
	<path d="M131.7,233.5c1.9,3.2,3.7,5.3,5.4,5.3c3.8,0,10.9-34.7,10.5-38.1c0,0,12.6-11,15.9-18.8c-8,2.6-13.6-2.1-13.6-2.1
		s1.3-17.5,0.4-25.8c-0.8-8.4,13.2-4.2,17.6-22.4c-9.2,2.4-16.6,2.2-18.2,0.8c0,0-2.5-11.5-0.2-19.1c2.3-7.6,7.1-8.1,6.4-17
		c-11.7,5.5-13.1-2.6-13.1-2.6s-0.8-6-0.7-11c0-0.4,0-0.9,0.1-1.3c0.1-2.3,2.8-8.1,5.4-15.3c3.4-9.5,6.6-21.1,3.6-29.5
		c-5.1,10.8-8.8,19.9-16,20c-3.7,0.1-6.6-2.1-9.1-5.4l-6.3,5.5c1.9,8.3,5.2,12.4,6.1,15.9c0.2,0.7,0.3,1.4,0.2,2.1
		c-0.5,4.6-1.3,9.9-2.3,15.3c-2.8,15.4-6.9,31.5-8.9,33.8c-2.7,3.1-10.9,13.6-21.8,6.3c5.7,25.9,14.7,25.2,16.4,36
		c1.5,9.7,8.1,44.1,14.1,53.2C126.8,224.4,129.4,229.6,131.7,233.5l0-0.1L131.7,233.5z M128.8,217.1c0-2.7,1.8-5,4-5
		c2.2,0,4,2.2,4,5c0,2.7-1.8,5-4,5C130.6,222.1,128.8,219.8,128.8,217.1z"/>
	<path d="M29.9,133.3l1.3-1.2l16.1-14.2l32.4-28.6l5.6-4.9l9.5-8.4l22.6-19.9l1.7-1.5l5.6-4.9l1.5-1.3l29.1-25.7
		c0.6,1.2,1.7,3.7,3.2,7.3c6.5,15.9,19.6,53.4,19.6,97.6c0,36.7-9,78.1-38.3,115.7c0,0-0.1,0-0.1,0c-1.1,0-1.9,0.9-1.9,1.9
		c0,0.1,0,0.2,0,0.2c-1,0.4-2,0.6-3.1,0.4c-2.5-0.4-4.2-2.5-4.4-4.9c-0.2,0.4-0.4,0.9-0.4,1.3c-0.5,2.9,1.5,5.7,4.4,6.3
		c1.9,0.3,3.7-0.3,4.9-1.6c0.2,0.1,0.4,0.1,0.6,0.1c1.1,0,1.9-0.9,1.9-1.9c0-0.3-0.1-0.5-0.1-0.7c29.6-38,38.7-79.9,38.7-116.9
		c0-56.3-21-101.6-23.2-106.2l0.9-0.8l-1.5-1.7l-31.6,26.8l-1.6,1.3l-4.6,3.9l-1.8,1.6l-27,22.9l-4.6,3.9l-10.1,8.5l-35.7,30.3
		l-4.4,3.8l-0.5-0.5l-0.8-0.9c3.2-3.3,4.5-7.2,2.8-9.2c-1.1-1.2-3-1.5-5.3-0.8c-1.7,0.5-3.6,1.5-5.4,3c-4,3.4-5.6,8-3.8,10.2
		c1.7,1.9,5.5,1.4,9.1-1.1c0.1-0.1,0.3-0.2,0.4-0.3l1.2,1.4l0,0.1l-0.2,0.1l-1.5,1.3l-5,4.3c-1.5-0.6-3.3-0.5-4.7,0.4
		c0.8,3.8,2.1,7.7,3.8,11.9l3.2-2.8C30.2,137.4,30.7,135.2,29.9,133.3z"/>
	<path d="M2.2,155c1.8,2.1,5,2.3,7.1,0.5l0.3-0.3c-0.1-0.2-0.3-0.5-0.4-0.7c-1.7-3.5-3.1-7-4.3-10.4l-3.1,2.7
		c-2.1,1.8-2.3,5-0.5,7.1L2.2,155z"/>
	<path d="M5.8,140.7c0.2,0.7,0.4,1.4,0.7,2.1c1.2,3.5,2.7,7.1,4.5,10.9c0,0.1,0.1,0.2,0.2,0.3c0.3,0.6,0.7,1.2,1.1,1.7
		c1.5,1.7,3.7,2.6,5.9,2.6c1.2,0,2.3-0.3,3.5-0.8c4-1.9,5.7-6.7,3.7-10.7c-0.3-0.6-0.6-1.2-0.8-1.8c-0.3-0.6-0.6-1.3-0.8-1.9
		c-1.8-4.3-3.1-8.2-3.9-11.8c-0.2-0.8-0.3-1.5-0.5-2.2c-0.6-3-0.8-5.8-0.8-8.4c0-5.9,1.3-10.7,3.2-14.7c2-4.3,4.8-7.6,7.7-10.4
		c0.6-0.6,1.3-1.1,1.9-1.7v14.4c0.8-0.2,1.6-0.3,2.3-0.3c1.9,0,3.4,0.6,4.5,1.9c1.4,1.6,1.6,3.8,0.9,6.2l34.6-29.4l11.2-9.5l2.7-2.3
		c-1.8-0.4-3.3-0.8-4.3-1.1c-0.5-0.2-0.9-0.3-1.1-0.4c-0.1,0-0.2-0.1-0.2-0.1l0,0c-0.9-0.3-1.8-0.5-2.7-0.5c-0.5-0.1-1-0.1-1.5-0.1
		H39c-0.6,0-1.3,0.1-1.9,0.2c-0.9,0-1.8,0.2-2.7,0.5v0c-0.6,0.2-8.1,3.2-16,10.6c-5.4,5-11,12.4-13.9,22.2
		c-1.3,4.4-2.1,9.2-2.1,14.5C2.5,126.8,3.5,133.5,5.8,140.7z"/>
</g>
</svg>
