<?xml version="1.0" encoding="UTF-8"?>
<svg id="Ebene_1" data-name="Ebene 1" xmlns="http://www.w3.org/2000/svg" viewBox="0 0 97 33.09">
  <defs>
    <style>
      .cls-1 {
        stroke-width: 0px;
      }
    </style>
  </defs>
  <path class="cls-1" d="M1.81,28.4c-.41.01-.84.02.05,0,.59-.02.42-.01.13,0,1.66-.08,7.97-1.02,12.27-3.42,0,0,0,0,0,0s0,0,0,0c0,0,.01,0,.02-.01,1.1-.62,3.59-1.66,5.91-1.62.43,0,.84,0,1.27-.02,2.05-.07,4.37-.14,10.06,1.9-1.15.33-2.41.55-2.73.5-.27-.05-.52.11-.61.36-.92,2.76,1.71,4.04,3.7,5.21,1.06.62,2.66,1.03,3.76.34.56-.35.87-.27,1.52-.42.37-.08.63-.28.96-.42.33-.13.75-.07,1.03-.29.05-.04.2-.16,2.21-2.44,2.77.36,14.32.49,18.3.52-.61.59-1.25,1.35-1.46,1.76-.26.5-.43,1.26-.1,1.89.17.33.54.74,1.33.84.05,0,.1,0,.15,0,1.62,0,7-2.38,8.6-3.44.47-.25,1.75-.92,2.18-1.09.46-.18,1.71-.37,2.59-.34.95.05,8.18-.54,10.24-.95,1.81-.36,3.67-.84,5.38-1.33,0,0,0,0,0,0,0,0,0,0,0,0,3.16-.92,5.83-1.93,6.75-2.47.4-.24,1.37-.9,1.59-1.91.11-.51.01-1.02-.3-1.48-.34-.5-1.22-.83-2.75-1.38-.29-.1-.59-.21-.88-.32-1.4-.52-4.84-1.96-6.89-2.81l-1.33-.55c-.79-.33-2.67-1.3-4.18-2.08-.89-.46-1.69-.87-2.15-1.09-2.19-1.06-3.6-1.73-4.67-2.2-.23-2.02-.46-4.43-.46-4.43-.02-.19-.12-.36-.29-.44-.17-.08-.36-.07-.52.03h0c-.17,0-.76-.52-.89-1.75-.03-.29-.32-.53-.61-.48-.25.04-1.06-.23-1.55-1.1-.13-.24-.48-.34-.72-.21-.17.09-.54.12-.89,0-.21-.07-.36-.17-.42-.29-.16-.27-.49-.39-.78-.22-.3.19-1.12.05-1.54-.46-.22-.26-.64-.22-.85.02-.13.14-.96,0-1.24-.21-.21-.16-.54-.12-.72.06-.27.29-.88.32-1.44.08-.2-.09-.43-.05-.59.1-.38.36-1.1.65-1.79.43-.23-.08-.51.03-.63.25-.23.4-1.09,1.21-1.69,1.04-.29-.07-.61.12-.67.41-.08.37-.65.85-1.02.87-.21,0-.43.18-.49.37-.08.25-.37.83-1.35.8-.24,0-.48.18-.54.41-.1.39-.55.96-1.15,1.02-.26.02-.48.26-.49.52-.01.34-.65,1.03-1.19,1.08-.28.03-.51.3-.49.58.04.51-.24,1.09-.38,1.15-.29.03-.5.27-.49.56,0,.1.04.19.08.27-.37.05-.78.11-1.22.17-.43-.52-1.13-1.32-2.11-1.93l-.29-.18c-1.42-.9-4.75-3-6.93-2.68-2.26.34-4.49,1.21-6.67,1.89-1.7.53-5.15,2.45-6.23,3.13,0,0,0,0-.01,0,0,0,0,0-.01,0-1.25.79-2.91,2.7-2.98,2.78-.13.14-.16.34-.1.53.06.18.21.32.4.35.01,0,.8.17,1.7.39-2.24.29-5.3.61-6.84.36-.02,0-.04-.01-.06-.02-.02,0-.04,0-.06,0-.27-.05-.49-.12-.64-.21-1.16-.73-5.74-2.78-7.96-3.61-2.21-.82-4.27-1.29-5.14-1.15-.64.1-1.13.38-1.4.8-.17.26-.34.72-.16,1.37.07.26.14.57.21.89.13.57.26,1.14.43,1.63,0,.02.01.05.02.07.1.28.2.54.33.74l.09.14c.42.65,1.39,2.18,1.33,3.1-.07,1.06-.7,2.38-1.53,3.21-.43.43-.92,1.18-1.33,1.98,0,.02-.02.04-.03.06-.32.62-.58,1.25-.72,1.8-.01.04-.02.07-.03.11-.07.3-.12.58-.1.79v.14c.07.75.15,1.68,1.81,1.66ZM29.13,26.8c1.05-.07,2.93-.54,4-.98.12.04.26.09.42.15-1.41.64-3.25,1.23-4.45,1.51-.02-.25,0-.49.03-.68ZM29.83,28.71c-.11-.07-.21-.14-.29-.23,1.6-.4,4.05-1.23,5.48-2.05.15.04.3.09.45.14-2.03,1.08-4.47,2.11-5.26,2.37-.12-.07-.24-.14-.38-.22ZM32.16,30.17c-.24-.16-.48-.33-.79-.52,1.46-.58,3.88-1.69,5.56-2.66.21.06.42.12.64.18-1.77,1.3-4.14,2.88-5.05,3.25l-.35-.24ZM38.57,29.6s-.05,0-.07,0c-.25.02-.67.06-1.03.35-.22.18-.74.29-1.2.26-.53-.04-.83.21-1.05.39-.11.09-.22.18-.38.26-.13.06-.47.06-.85,0,1.57-.91,3.79-2.49,4.92-3.35.44.11.87.22,1.26.31-.72.81-1.39,1.57-1.59,1.77ZM67.57,28.77c-1.73,1.14-7.04,3.36-7.99,3.24-.39-.05-.48-.22-.51-.27-.11-.21-.07-.58.1-.89.32-.61,1.65-1.92,1.89-2.05.13-.03.23-.11.31-.21,1.87-.01,3.99-.09,5.44-.14.37-.01.74-.03,1.04-.04-.09.12-.18.24-.28.35ZM73.02,27.14c-.96-.04-2.38.15-3.03.41-.17.07-.42.19-.7.32,0-.07-.03-.13-.05-.18-.07-.18-.29-.35-.48-.37-.04,0-.11,0-.21,0-.25,0-.74.02-1.78.05-1.58.06-3.97.14-5.94.14-4.02,0-17.56-.17-19.56-.55-1.05-.2-2.71-.63-4.27-1.08,0,0,0,0,0,0-1.57-.45-3.04-.9-3.68-1.14,0,0,0,0,0,0,0,0,0,0,0,0-6.93-2.65-9.67-2.56-11.87-2.49-.41.01-.81.03-1.23.02-3.05-.04-6.03,1.52-6.43,1.74,0,0,0,0,0,0-.12.06-.27-.01-.36-.06-.59-.33-1.27-1.51-1.52-3.79,3.66-.04,14.6-.81,20.38-1.45,2.12-.23,4.27-.59,6.54-.97.66-.11,1.33-.22,2.01-.33-.02.35.08.69.3.96.27.33.66.51,1.08.51.61,0,1.16-.41,1.33-1,.07-.25.17-.58.28-.93,2.1-.3,4.37-.58,6.88-.78-.06.31-.1.59-.1.78,0,1.23.62,1.5.88,1.56.07.01.14.02.2.02.51,0,1.02-.41,1.33-1.1.08-.18.23-.64.47-1.44.67-.03,1.35-.06,2.06-.08,1.42-.04,2.74-.06,3.99-.06-.01.14-.05.29-.05.44-.06.88.56,1.43,1.19,1.52.06,0,.13.01.19.01.6,0,1.23-.38,1.4-1.17.05-.26.12-.52.17-.77,2.15.04,4.03.14,5.7.27,0,.02-.01.05-.02.07-.18.86.31,1.4.89,1.56.12.03.26.05.39.05.54,0,1.11-.28,1.31-.86.06-.18.13-.37.19-.56.9.1,1.73.21,2.52.32-.57.33-1.06.75-1.43,1.29-.51.76.27,1.32.64,1.59.19.13.4.29.48.41.03.05.09.15.16.28.79,1.4,3.2,5.67,6.38,6.23.17.03.37.04.55.07-2.87.31-6.62.58-7.18.55ZM38.47,14.56c.66,0,1.25-.45,1.43-1.08l.26-.92c.59-.12,1.17-.23,1.72-.33l-.84,4.07c-.82.13-1.62.26-2.4.39-1.55.26-3.04.49-4.5.69.22-.19.39-.44.48-.73.27-.85.67-2.07,1.1-3.22.42-.08.84-.17,1.26-.25.02.29.11.57.3.8.28.37.71.58,1.18.58ZM38.07,12.97h0c.3-.06.6-.12.9-.18l-.11.4c-.09.3-.53.38-.72.14-.08-.1-.1-.23-.07-.35ZM33.6,16.33c-.07.22-.27.38-.5.4-.19.01-.29-.1-.33-.14-.04-.05-.12-.18-.06-.35l.76-2.34c.33-.07.67-.13,1.02-.2-.35.97-.67,1.94-.89,2.65ZM42.65,17.13c-.05.16-.09.32-.14.46-.07.26-.47.2-.54.11-.03-.04-.09-.13-.06-.26l.04-.2c.23-.04.46-.07.7-.11ZM42.18,16.11l.85-4.11c.47-.09.91-.17,1.31-.25-.41,1.15-.92,2.79-1.35,4.23-.27.04-.54.08-.81.12ZM56.96,11.74c.29.36.71.56,1.17.56.69,0,1.29-.47,1.46-1.13l.39-1.52c.44-.03.88-.06,1.33-.09-.8,1.86-1.36,3.61-1.63,5.23-1.3,0-2.68.02-4.16.06-.58.02-1.13.04-1.69.07.49-1.58,1.12-3.57,1.66-4.85.4-.05.82-.09,1.29-.14l-.12.56c-.1.45.01.91.3,1.26ZM57.71,10.71l.19-.89c.31-.03.62-.05.94-.08l-.3,1.17c-.05.19-.22.32-.41.32-.18,0-.28-.1-.33-.16-.05-.06-.12-.18-.09-.36ZM65.66,11.02c.29.37.73.58,1.19.58.66,0,1.24-.42,1.45-1.04l.41-1.21c.5.03.9.07,1.17.13.09.02.17.04.25.06-.74,1.81-1.27,3.48-1.76,5.55-1.63-.13-3.51-.23-5.68-.28.55-2.08,1.23-3.98,1.96-5.44.13,0,.26,0,.39-.01,0,0,.01,0,.02,0,.01,0,.03,0,.04,0,.12,0,.23,0,.35-.01l-.09.38c-.1.46,0,.93.29,1.29ZM66.42,9.97l.15-.65c.36,0,.69,0,1.01,0l-.3.89c-.1.31-.57.39-.77.14-.05-.06-.13-.2-.09-.38ZM69.22,16.24c.19.02.39.03.57.05-.04.11-.08.23-.11.33-.03.09-.23.16-.39.11-.08-.02-.17-.05-.12-.29.02-.07.03-.14.05-.21ZM61.59,14.8c-.27,0-.55,0-.83,0,.29-1.63.89-3.43,1.74-5.31.31-.02.62-.03.93-.05-.69,1.5-1.33,3.37-1.84,5.37ZM61.34,15.87c-.04.19-.09.38-.13.56-.07.33-.32.33-.39.32-.11-.01-.28-.08-.26-.38.01-.16.05-.34.06-.5.24,0,.47,0,.71,0ZM52.69,14.97c-.21.01-.4.03-.61.04.31-1.17.79-2.76,1.41-4.67l.68-.11s.07,0,.1-.01c-.55,1.42-1.14,3.31-1.58,4.75ZM52.35,16.07c-.14.46-.26.82-.31.93-.1.22-.22.36-.3.42-.03-.08-.06-.22-.06-.46,0-.18.04-.47.13-.85.18-.01.36-.02.54-.04ZM79.83,25.46c-1.77-.31-3.66-2.23-5.62-5.7-.09-.16-.15-.27-.19-.33-.19-.3-.49-.51-.76-.7-.09-.06-.21-.15-.29-.22,1.16-1.53,3.97-1.85,6.46-2.12,0,0,0,0,0,0-1.06,1.51-1.96,3.6-.15,6.61.88,1.47,2.36,2.21,3.83,2.58-1.16.06-2.32.05-3.28-.11ZM94.82,22.53c-.62.36-2.34,1.05-4.58,1.77,1.18-1.21,3.86-2.25,5.3-2.46.04,0,.07-.02.1-.04-.2.26-.48.52-.83.72ZM92.65,19.38c.3.11.6.22.9.32.86.31,2.04.73,2.22.97.08.11.12.22.14.33-.11-.17-.31-.27-.52-.24-1.68.24-4.83,1.44-6.14,2.99-.19.23-.16.57.06.76.02.02.05.03.07.04-.24.07-.48.15-.72.22,0-.09,0-.17-.04-.26-.11-.27-.47-.41-.75-.29,0,0-.05-.04-.08-.14-.03-.08.01-.34.23-.68.32-.48.81-.84,1.21-.87.3-.03.52-.29.49-.58,0-.04-.02-.07-.03-.11.02,0,.04,0,.06,0,1.17,0,2.13-.79,2.13-1.76,0-.51-.27-.96-.68-1.28.58.23,1.09.43,1.45.57ZM90.8,20.1c0,.26-.26.5-.62.61.15-.12.26-.29.26-.5,0-.36-.3-.65-.67-.65s-.66.29-.66.65c0,.22.12.4.29.52-.4-.1-.71-.35-.71-.63,0-.36.49-.68,1.05-.68s1.05.32,1.05.68ZM73.1,10.51c1.08.46,2.52,1.15,4.91,2.3.46.22,1.25.63,2.13,1.08,1.61.83,3.43,1.77,4.27,2.11l1.32.55c1.21.51,2.9,1.21,4.38,1.81-.11-.02-.23-.03-.35-.03-1.17,0-2.13.79-2.13,1.76,0,.64.42,1.19,1.03,1.5-.66.23-1.21.74-1.53,1.23-.38.57-.51,1.16-.36,1.62.05.15.12.27.19.37-1.51.1-5.28.09-6.76-2.37-1.84-3.06-.43-4.8.86-6.41.14-.17.16-.41.05-.6-.11-.19-.31-.29-.54-.27-.41.05-.84.1-1.27.15-1.28.14-2.64.3-3.87.63-1.06-.17-2.42-.38-4.17-.57.55-1.56,1.23-3.38,1.84-4.85ZM72.32,5.86c.03.31.07.73.12,1.2-.1-.4-.21-.82-.31-1.26.06.02.12.05.19.06ZM70.16,15.25c-.23-.02-.46-.04-.69-.07.47-1.99,1-3.61,1.72-5.37.3.09.6.18.91.3-.65,1.57-1.37,3.51-1.94,5.13ZM70.64,3.61c.28,2,.84,4.07,1.19,5.27-.16-.05-.33-.1-.49-.15-.15-.79-.57-2.86-1.26-5.31.19.09.38.15.55.19ZM68.65,2.38c.79,2.55,1.3,4.89,1.53,6.07-.02,0-.04,0-.06-.01-.1-.02-.22-.04-.34-.06-.42-2.75-1.1-4.74-1.62-5.97.17.01.33,0,.5-.02ZM66.72,1.86c.42.8,1.39,2.96,1.95,6.41-.05,0-.11,0-.17,0-.88-2.93-1.82-5.08-2.48-6.39.24.03.48.03.7-.01ZM64.52,1.36c.51.91,1.73,3.27,2.85,6.89-.1,0-.2,0-.3,0-1.31-3.4-2.44-5.6-3.14-6.81.21,0,.41-.01.6-.07ZM62.57,1.27c.54.86,1.81,3.07,3.34,6.98-.16,0-.33,0-.49.01-1.09-2.57-2.7-5.36-3.57-6.8.26-.02.5-.1.72-.2ZM60.58,1.46c.65,1.06,2.46,4.07,3.68,6.84-.01,0-.03,0-.04,0-.2,0-.39.02-.59.03-1.78-3.13-3.3-5.32-4.15-6.47.41-.07.78-.21,1.1-.41ZM58.34,2.15c.7.94,2.26,3.1,4.08,6.25-.22.01-.44.03-.66.04-1.91-2.66-3.61-4.53-4.56-5.49.44-.19.83-.49,1.14-.8ZM56.2,3.46c.79.79,2.44,2.55,4.29,5.06-.24.02-.47.03-.7.05-1.74-2.15-3.36-3.73-4.24-4.52.25-.16.47-.36.65-.59ZM54.67,4.72c.73.66,2.19,2.06,3.8,3.97-.18.02-.36.03-.54.05-1.22-1.44-2.89-2.71-3.95-3.46.28-.15.52-.34.69-.56ZM52.89,5.84c.81.54,2.43,1.69,3.71,3.02-.23.02-.44.05-.64.07-.7-.64-2.48-1.7-3.7-2.4.26-.2.47-.44.64-.7ZM51.33,7.25c1.15.65,2.31,1.35,3.09,1.87-.14.02-.29.04-.42.06l-.78.12c-.54-.37-1.64-.87-2.57-1.27.27-.23.5-.49.66-.78ZM49.83,8.84c.57.24,1.15.5,1.64.72-.2.03-.4.06-.59.09-.31-.18-.76-.28-1.19-.34.06-.15.11-.32.15-.48ZM47.96,11.18c.39-.06.76-.11,1.1-.16l-.18.83c-.05.23-.26.4-.5.4-.21,0-.33-.11-.39-.18-.06-.07-.15-.21-.11-.42l.08-.47ZM46.67,11.36c.06,0,.11-.01.16-.02l-.02.13c-.08.46.04.94.35,1.3.3.36.75.57,1.22.57.74,0,1.39-.52,1.55-1.25l.27-1.23c.52-.08,1.05-.16,1.64-.26l.45-.07c-.51,1.56-1.02,3.25-1.35,4.56-2.47.18-4.71.44-6.78.73.47-1.55,1.03-3.32,1.4-4.28.45-.08.83-.14,1.1-.18ZM43.85,9.05l.29.18c.58.36,1.05.81,1.42,1.21-.39.07-.83.15-1.34.24-.59-.91-1.71-1.99-2.97-3.14,1.06.54,2.04,1.15,2.59,1.5ZM37.65,6.53c.28-.04.6-.02.94.04,0,0,0,.01.01.02.41.39.85.79,1.3,1.19,1.22,1.1,2.46,2.24,3.16,3.13-.26.05-.52.1-.8.15-.65-1-2.58-2.55-5-4.44h0c.15-.03.29-.06.4-.08ZM35.93,6.94l.66.52c1.42,1.11,3.62,2.83,4.49,3.82-.3.06-.6.12-.91.18-.58-.92-2.43-2.36-4.4-3.89-.18-.14-.36-.28-.54-.42.24-.07.47-.14.7-.2ZM33.97,7.52c.37.3.76.59,1.15.9,1.49,1.16,3.15,2.46,3.88,3.27,0,0-.72.14-1.09.23,0,0-.08-.13-.08-.13-.77-1.18-2.74-2.7-4.51-4.07.22-.07.43-.13.66-.2ZM31.67,8.22c.12-.04.26-.08.38-.12l.58.45c1.51,1.16,3.34,2.58,4.13,3.58-.31.06-.61.12-.92.18-1.02-1.29-2.51-2.53-3.84-3.63-.17-.14-.33-.27-.49-.41l.16-.05ZM30.33,8.69c.31.26.64.54.98.82,1.14.94,2.39,1.98,3.32,3.04-.04,0-.08.02-.13.03-.18.04-.36.07-.54.11-.65-.8-2.11-1.96-4.5-3.61.3-.14.59-.27.86-.38ZM28.36,9.62c2.44,1.66,3.71,2.68,4.36,3.31-.24.05-.48.1-.72.14-.8-.9-2.98-2.25-4.45-3.03.27-.14.54-.28.81-.42ZM26.42,10.66s.04.04.07.05c1.49.72,3.31,1.88,4.23,2.62-.3.06-.59.12-.87.17-.47-.42-1.41-1-2.85-1.88-.36-.22-.73-.44-1.08-.66.16-.09.33-.19.51-.29ZM29.11,14.74c-.01.07-.03.12-.04.19-.04.24-.41.21-.47.13-.03-.03-.07-.11-.05-.21.18-.03.36-.07.56-.11ZM24.9,11.59c.49.31,1.01.63,1.53.95.64.39,1.41.86,1.98,1.24-.23.05-.45.09-.68.13-.73-.55-2.14-1.24-3.49-1.79.22-.2.44-.37.65-.53ZM23.02,13.31c.11-.12.24-.25.36-.38,1.02.39,2.02.85,2.78,1.25-.03,0-.06,0-.09.01-.78-.34-2.14-.68-3.05-.89ZM16.58,15.97s0,0,0,0c2,.32,5.54-.1,9.18-.63l.31-.05c.29-.04.78-.13,1.4-.24.03.24.12.48.27.68.26.32.64.51,1.05.51.67,0,1.23-.48,1.33-1.14.05-.31.09-.48.12-.58.62-.12,1.29-.25,2-.39l-.58,1.77c-.15.46-.06.97.24,1.35.12.16.28.28.45.37-.07,0-.14.02-.21.03-5.79.64-16.74,1.41-20.32,1.45.01-.94.27-1.69.79-2.2,1.05-1.03,2.93-1.02,3.95-.92ZM2.37,11.81s0,0,0,0c-.06-.22-.05-.39.02-.51.1-.15.34-.27.66-.32.48-.07,2.23.21,4.59,1.1,1.67.62,4.8,1.99,6.61,2.89-.19.03-.37.08-.55.13-4.01-1.88-8.56-3-11.34-3.29ZM2.64,12.93c2.51.31,6.26,1.25,9.76,2.77-.07.05-.13.11-.2.16-2.69-1.12-6.31-1.6-9.29-1.88-.1-.33-.18-.69-.26-1.05ZM3.41,15.11c2.64.27,5.66.71,8,1.6-.03.05-.07.09-.1.13-2.17-.64-5.17-.91-7.47-1.02-.15-.26-.3-.5-.43-.71ZM10.76,19.63s0,.03,0,.04c0,.02,0,.04,0,.06-1.25.03-4.48.1-6.13.04.09-.32.15-.64.17-.95,2-.02,4.84.26,5.95.38,0,.14-.01.27,0,.42,0,0,0,0,0,0,0,0,0,0,0,0ZM4.7,17.73c-.07-.27-.18-.54-.29-.81,2.73.16,4.96.47,6.51.92-.02.09-.04.18-.05.28-1.16-.13-4.09-.42-6.16-.39ZM6.51,20.87c1.67,0,3.56-.04,4.38-.07.01.08.03.16.04.24-2.12.26-5.16.55-7.13.55.16-.25.31-.51.44-.78.57.04,1.38.05,2.27.05ZM2.96,22.65c.25.01.52.02.83.02,2.17,0,5.43-.33,7.38-.57.02.09.05.18.07.27-2.7.57-6.56,1.03-8.93,1.15.22-.35.44-.65.66-.87ZM1.69,24.63c2.36-.07,6.92-.59,9.94-1.24.03.06.06.13.09.19-3.79,1.13-7.57,1.55-10.34,1.74.09-.22.19-.45.3-.69ZM1.09,26.42c2.94-.19,7.12-.6,11.32-1.91.05.04.09.09.14.13-4.1,1.89-9.48,2.66-10.7,2.69-.69.02-.69.02-.75-.67v-.15s0-.06,0-.09Z"/>
  <path class="cls-1" d="M72.93,20.41c-.39-.09-9.71-2.13-12.29-.43-.41.27-.66.62-.75,1.05-.11.58.07,1.16.53,1.73,1.59,1.94,6.18,3.17,7.08,3.17h.01c1.33,0,3.15-.34,5.46-1.02l-.15-.52-.21-.5c-2.15.64-3.87.96-5.09.96h-.01c-.78,0-4.99-1.25-6.25-2.78-.25-.31-.35-.58-.3-.84.02-.08.06-.21.28-.35,1.63-1.07,7.9-.21,11.47.59.29.06.58-.12.64-.41.06-.29-.12-.58-.41-.64Z"/>
</svg>